<?xml version="1.0" encoding="utf-8"?>
<svg xmlns="http://www.w3.org/2000/svg" xmlns:xlink="http://www.w3.org/1999/xlink" version= "1.1" width="914px" height="653px" viewBox="109 781 914 653">
<g id="layer1">
<g style="fill:rgb(31, 41, 55); fill-opacity:1.0; stroke-linejoin: miter">
<path d="M212.13177,1193.7041L584.37537,1193.7045L956.6192,1193.705Q956.6192,1211.0614,956.6192,1228.418Q584.37537,1228.418,212.13177,1228.4186Q212.13177,1211.0618,212.13177,1193.7041"/>
</g>
<g style="fill:rgb(59, 130, 246); fill-opacity:1.0; stroke-linejoin: miter">
<path d="M823.95013,1075.9893C853.5687,1075.9858,864.2279,1046.3315,867.01764,1021.9684C870.45514,991.9573,856.2638,969.37036,823.95013,969.37036C791.6429,969.37036,777.4452,991.9557,780.8825,1021.96814C783.6757,1046.3289,794.3294,1075.9923,823.95013,1075.9893 Z"/>
</g>
<g style="fill:rgb(59, 130, 246); fill-opacity:1.0; stroke-linejoin: miter">
<path d="M904.0734,1146.6084C903.7499,1137.1552,902.64215,1127.6588,900.9925,1118.3524C898.9936,1107.079,896.44995,1090.5515,886.6073,1083.2064C880.9152,1078.9587,873.544,1077.5651,867.02765,1075.0033C863.8563,1073.7574,861.01495,1072.5198,858.34845,1071.1111C849.3484,1080.9807,837.61273,1086.1436,823.94476,1086.144C810.28217,1086.144,798.54785,1080.9812,789.5478,1071.1108C786.88135,1072.5198,784.04,1073.7579,780.8686,1075.0033C774.3521,1077.5651,766.98083,1078.9579,761.2894,1083.206C751.44617,1090.5529,748.9025,1107.0803,746.9043,1118.352C745.2542,1127.6584,744.1462,1137.1548,743.8227,1146.608C743.5721,1153.9298,747.18744,1154.9562,753.31305,1157.167C760.98364,1159.9335,768.9026,1161.9866,776.87506,1163.6704C792.2721,1166.9218,808.1431,1169.4209,823.94574,1169.5325C839.7487,1169.4204,855.6197,1166.9218,871.0166,1163.6707C878.98883,1161.9879,886.9086,1159.9341,894.57855,1157.1674C900.70624,1154.9573,904.32117,1153.9309,904.07074,1146.6084 Z"/>
</g>
<g style="fill:rgb(255, 255, 255); fill-opacity:1.0; stroke-linejoin: miter">
<path d="M818.05475,1085.6007L828.5887,1085.6007L833.8557,1090.8677L823.3217,1096.1343L812.7877,1090.8677L818.05475,1085.6007"/>
</g>
<g style="fill:rgb(255, 255, 255); fill-opacity:1.0; stroke-linejoin: miter">
<path d="M823.3217,1090.8677L821.2149,1095.0809L812.7877,1111.9354L813.37683,1169.1208C816.90564,1169.3647,820.42737,1169.5078,823.94574,1169.5325C827.58344,1169.5068,831.22485,1169.3546,834.8633,1169.0957L833.8557,1111.9354L825.42847,1095.0809L823.3217,1090.8677 Z"/>
</g>
<g style="fill:rgb(59, 130, 246); fill-opacity:1.0; stroke-linejoin: miter">
<path d="M585.2159,1075.9894C614.8345,1075.986,625.49347,1046.3314,628.2833,1021.9685C631.72076,991.9573,617.52966,969.37036,585.2159,969.37036C552.90875,969.37036,538.71106,991.9557,542.1484,1021.9685C544.9415,1046.329,555.59515,1075.9927,585.2159,1075.9894 Z"/>
</g>
<g style="fill:rgb(59, 130, 246); fill-opacity:1.0; stroke-linejoin: miter">
<path d="M665.33936,1146.6083C665.01575,1137.1553,663.908,1127.6589,662.25836,1118.3525C660.2595,1107.0789,657.7157,1090.5516,647.8731,1083.2065C642.18097,1078.9586,634.80963,1077.5652,628.2934,1075.0034C625.12195,1073.7573,622.2807,1072.5197,619.6142,1071.111C610.6142,1080.9806,598.8785,1086.1437,585.21045,1086.1444C571.548,1086.1444,559.81366,1080.9811,550.8136,1071.111C548.14716,1072.5199,545.3058,1073.7578,542.1342,1075.0034C535.618,1077.5652,528.24695,1078.9581,522.5555,1083.2063C512.71216,1090.5533,510.16867,1107.0806,508.17032,1118.3525C506.52023,1127.6589,505.4122,1137.155,505.0887,1146.6083C504.83823,1153.93,508.45358,1154.9567,514.5791,1157.1672C522.24963,1159.9335,530.16876,1161.9868,538.1409,1163.6705C553.5379,1166.9219,569.4088,1169.4208,585.2115,1169.5326C601.01447,1169.4208,616.8855,1166.9219,632.2823,1163.6705C640.2545,1161.988,648.1744,1159.934,655.84424,1157.1672C661.9721,1154.9572,665.5871,1153.931,665.3367,1146.6083 Z"/>
</g>
<g style="fill:rgb(255, 255, 255); fill-opacity:1.0; stroke-linejoin: miter">
<path d="M579.3205,1085.6006L589.8545,1085.6006L595.1214,1090.8678L584.5876,1096.1344L574.05347,1090.8678L579.3205,1085.6006"/>
</g>
<g style="fill:rgb(255, 255, 255); fill-opacity:1.0; stroke-linejoin: miter">
<path d="M584.5876,1090.8678L582.4808,1095.081L574.05347,1111.935L574.64264,1169.121C578.17145,1169.3646,581.69324,1169.5077,585.2115,1169.5326C588.84924,1169.5067,592.49066,1169.3547,596.129,1169.0958L595.1214,1111.9353L586.6942,1095.081L584.5876,1090.8678 Z"/>
</g>
<g style="fill:rgb(59, 130, 246); fill-opacity:1.0; stroke-linejoin: miter">
<path d="M346.48184,1075.9893C376.10037,1075.9858,386.75943,1046.3315,389.5493,1021.9684C392.98672,991.9573,378.7953,969.37036,346.48184,969.37036C314.17468,969.37036,299.977,991.9557,303.4143,1021.96814C306.20746,1046.3289,316.8612,1075.9923,346.48184,1075.9893 Z"/>
</g>
<g style="fill:rgb(59, 130, 246); fill-opacity:1.0; stroke-linejoin: miter">
<path d="M426.6052,1146.6084C426.28152,1137.1552,425.1738,1127.6588,423.52408,1118.3524C421.5253,1107.079,418.98154,1090.5515,409.13885,1083.2064C403.44684,1078.9587,396.07562,1077.5651,389.55936,1075.0033C386.38782,1073.7574,383.54666,1072.5198,380.8801,1071.1111C371.88004,1080.9807,360.14438,1086.1436,346.47656,1086.1443C332.81396,1086.1443,321.0796,1080.9812,312.07956,1071.1108C309.413,1072.5198,306.57175,1073.7579,303.4003,1075.0033C296.88394,1077.5651,289.51294,1078.9583,283.8214,1083.2064C273.9781,1090.5532,271.4346,1107.0804,269.43622,1118.3522C267.78616,1127.6588,266.67813,1137.1552,266.35464,1146.6084C266.10416,1153.9302,269.7195,1154.9565,275.84503,1157.1671C283.5156,1159.9338,291.4347,1161.9867,299.40686,1163.6704C314.80392,1166.9218,330.6749,1169.4209,346.4775,1169.5327C362.28052,1169.4207,378.1513,1166.9218,393.54816,1163.6707C401.52032,1161.9879,409.4401,1159.9341,417.11,1157.1674C423.23782,1154.9573,426.85287,1153.9309,426.6024,1146.6084 Z"/>
</g>
<g style="fill:rgb(255, 255, 255); fill-opacity:1.0; stroke-linejoin: miter">
<path d="M340.58646,1085.6007L351.12036,1085.6007L356.38736,1090.8677L345.8534,1096.1343L335.31952,1090.8677L340.58646,1085.6007"/>
</g>
<g style="fill:rgb(255, 255, 255); fill-opacity:1.0; stroke-linejoin: miter">
<path d="M345.85352,1090.8677L343.7467,1095.0812L335.31952,1111.9354L335.9086,1169.1211C339.4373,1169.3647,342.95917,1169.5078,346.4775,1169.5327C350.11523,1169.5068,353.75653,1169.3546,357.39493,1169.0957L356.38736,1111.9354L347.96024,1095.0812L345.85352,1090.8677 Z"/>
</g>
<g style="fill:rgb(75, 85, 99); fill-opacity:1.0; stroke-linejoin: miter">
<path d="M585.98096,1238.115C615.59955,1238.1116,626.2586,1208.4572,629.04834,1184.0941C632.4859,1154.0831,618.2946,1131.4962,585.98096,1131.4962C553.6737,1131.4962,539.4761,1154.0817,542.91345,1184.0939C545.70654,1208.4547,556.36017,1238.1182,585.98096,1238.115 Z"/>
</g>
<g style="fill:rgb(75, 85, 99); fill-opacity:1.0; stroke-linejoin: miter">
<path d="M666.1044,1308.7344C665.78076,1299.281,664.67303,1289.7848,663.0234,1280.4784C661.02454,1269.2048,658.4808,1252.6774,648.6382,1245.3323C642.94604,1241.0846,635.5748,1239.6909,629.0585,1237.1292C625.88696,1235.8833,623.0457,1234.6456,620.3794,1233.2369C611.3792,1243.1066,599.6437,1248.2693,585.9756,1248.27C572.313,1248.2698,560.5787,1243.107,551.5786,1233.2367C548.9121,1234.6456,546.07086,1235.8838,542.89954,1237.1292C536.3832,1239.6909,529.012,1241.0841,523.3205,1245.3323C513.47723,1252.6791,510.93384,1269.2063,508.93536,1280.4784C507.28534,1289.7848,506.17725,1299.281,505.85382,1308.7344C505.60327,1316.0562,509.21863,1317.0825,515.34424,1319.2933C523.0148,1322.0598,530.9338,1324.1129,538.90594,1325.7966C554.303,1329.0476,570.17395,1331.5468,585.9767,1331.6589C601.77966,1331.5465,617.65063,1329.0476,633.0473,1325.7966C641.0196,1324.1139,648.9394,1322.06,656.6093,1319.2936C662.7371,1317.0833,666.3521,1316.0569,666.1017,1308.7344 Z"/>
</g>
</g>
</svg>
