<?xml version='1.0' encoding='utf-8'?>
<svg xmlns="http://www.w3.org/2000/svg" filter="drop-shadow( 3px 3px 2px rgba(0, 0, 0, .3))" version="1.1" width="1279px" height="960px" viewBox="-113 593 1279 960">
    <style>
        <![CDATA[
            g.svg-white {
                fill: rgb(255, 255, 255);
            }
            g.svg-black {
                fill: rgb(0, 0, 0);
            }
            g.svg-gray-900 {
                fill: #1f2937; /* rgb(0,12,17) */
            }
            g.svg-gray-800 {
                fill: #1f2937; /* rgb(60,70,79) */
            }
            g.svg-gray-600 {
                fill: #4b5563; /* rgb(132,140,147) */
            }
            g.svg-gray-500 {
                fill: #9ca3af; /* rgb(130,140,150) */
            }
            g.svg-gray-400 {
                fill: #6b7280; /* rgb(135,149,162) */
            }
            g.svg-gray-300 {
                fill: #d4d4d8; /* rgb(191,201,210) */
            }
            g.svg-stone-500 {
                fill: #78716c; /* rgb(161,154,137) */
            }
            g.svg-blue-400 {
                fill: #93c5fd; /* rgb(187,223,255) */
            }
            g.svg-blue-300 {
                fill: #93c5fd; /* rgb(212,235,255) */
            }
            g.svg-orange-200 {
                fill: #fed7aa; /* rgb(255,183,159) */
            }
            g.svg-opacity-100 {
                fill-opacity: 1.0;
            }
            g.svg-opacity-99 {
                fill-opacity: 0.99607843;
            }
            g.svg-opacity-78 {
                fill-opacity: 0.78431374;
            }
            g.svg-opacity-61 {
                fill-opacity: 0.6117647;
            }
            g.svg-opacity-51 {
                fill-opacity: 0.5137255;
            }
            g.svg-opacity-44 {
                fill-opacity: 0.44705883;
            }
            g.miter {
                stroke-linejoin: miter;
            }
        ]]>
    </style>
    <g id="layer1">
        <g>
            <g class="svg-white svg-opacity-100 miter">
                <path d="M109.44798,842.1362L266.45966,786.6591L423.47122,731.1822Q499.74377,947.0478,576.0165,1162.9131Q419.00504,1218.391,261.99362,1273.8689Q185.72086,1058.0027,109.44798,842.1362" />
            </g>
            <g class="svg-gray-300 svg-opacity-78 miter">
                <path d="M361.67084,765.0124L417.19464,745.39465L420.92477,755.9515L365.40128,775.5704L361.67084,765.0124" />
            </g>
            <g class="svg-gray-300 svg-opacity-78 miter">
                <path d="M384.40952,772.9189L422.2019,759.56586L425.9321,770.12317L388.13992,783.47675L384.40952,772.9189" />
            </g>
            <g class="svg-gray-300 svg-opacity-61 miter">
                <path d="M415.6303,988.58246L493.0371,961.23334L546.1687,1111.6056L468.76282,1138.9573L415.6303,988.58246" />
            </g>
            <g class="svg-blue-300 svg-opacity-99 miter">
                <path d="M430.1373,988.3422L455.86832,979.25116L481.5993,970.1597Q484.3496,977.9434,487.0999,985.7271Q461.369,994.8189,435.63818,1003.9108Q432.88776,996.1268,430.1373,988.3422" />
            </g>
            <g class="svg-blue-300 svg-opacity-44 miter">
                <path d="M177.59059,962.45636L301.95847,918.5133L426.3262,874.5705Q440.2604,914.0069,454.1946,953.44336Q329.82712,997.38666,205.45934,1041.3303Q191.52495,1001.8935,177.59059,962.45636" />
            </g>
            <g class="svg-blue-300 svg-opacity-99 miter">
                <path d="M241.14871,879.06213L312.5457,853.8355L383.9428,828.6088Q389.95822,845.6341,395.97388,862.6594Q324.57693,887.8864,253.1803,913.1135Q247.16449,896.08777,241.14871,879.06213" />
            </g>
            <g class="svg-blue-400 svg-opacity-100 miter">
                <path d="M266.82834,878.0997L269.7794,877.05756Q272.34265,876.1513,273.9422,876.6927Q275.58197,877.25323,276.25595,879.16064Q276.6141,880.17426,276.55478,881.05023Q276.49014,881.9112,276.0152,882.7495Q275.49643,883.65375,274.70236,884.25275Q273.99557,884.7816,272.94705,885.199Q272.751,885.27673,272.54297,885.351L272.54233,885.35126L269.74036,886.34125L266.82834,878.0997 Z M290.80682,876.18774Q290.93246,876.1378,291.06384,876.0913L291.04456,876.1317Q291.99832,875.7947,292.83923,875.84955Q293.6802,875.90454,294.4018,876.28644Q294.96222,876.5914,295.6218,877.4143Q296.19458,878.13403,296.5053,879.01324L288.09995,881.9839Q287.66763,879.90643,288.39383,878.3088Q289.03613,876.8922,290.80682,876.18774 Z M363.9682,850.3374Q364.0939,850.28735,364.22522,850.2409L364.20605,850.28125Q365.1597,849.9443,366.00055,849.999Q366.8414,850.05414,367.56305,850.43616Q368.12347,850.7411,368.78308,851.56415Q369.35605,852.2839,369.66675,853.1631L361.26123,856.13354Q360.82892,854.0562,361.55518,852.45844Q362.19748,851.0419,363.9682,850.3374 Z M260.8643,877.5415L261.33826,878.88275Q261.49628,879.32996,261.98022,879.27625Q262.26956,879.2411,263.88007,879.0074L270.0254,896.39954L268.38348,897.3986Q267.97333,897.661,268.1313,898.10815L268.59473,899.41986L270.78537,898.6455L273.75134,897.598L275.9421,896.8237L275.47864,895.51215Q275.41022,895.31836,275.20325,895.20703Q275.01648,895.10547,274.79196,895.1343Q274.53247,895.15906,272.9614,895.3621L270.52856,888.47675L272.48102,887.7874Q273.12177,887.5606,273.4532,887.64465Q273.83987,887.7427,274.18884,887.9714L282.6264,893.7744Q283.21063,894.28894,284.01544,894.0046L284.98434,893.6626L286.6384,893.07776L287.18988,892.88293L286.71594,891.5417Q286.55798,891.0945,286.05917,891.15326L286.0601,891.1529L286.08902,891.14325Q285.92404,891.1508,284.2697,891.45044L277.25455,886.6368Q276.6468,886.1977,275.9498,886.0752Q276.96832,885.44696,277.9044,884.39557Q278.69836,883.5114,279.09882,882.4144Q279.49902,881.3174,279.50912,880.20746Q279.5132,879.03253,279.12872,877.9445Q278.6338,876.5437,277.77145,875.5743Q276.94,874.64435,275.63165,874.16785Q274.3435,873.701,272.69598,873.8304Q270.9688,873.97125,268.94196,874.6873L263.0552,876.76794L260.8643,877.5415 Z M289.96326,874.25867Q288.51178,874.8362,287.5285,875.7647Q286.3733,876.86017,285.8073,878.2001Q285.28012,879.45935,285.24017,881.1498Q285.20837,882.72003,285.7718,884.31464Q286.47742,886.3119,287.57654,887.6668Q288.71146,889.07635,290.01297,889.72296Q291.44058,890.4424,292.94162,890.5154Q294.44272,890.5886,296.09705,890.0041Q296.2496,889.95013,296.40735,889.88745Q297.0205,889.64343,297.7134,889.2652Q298.31763,888.93445,299.21506,888.24835Q299.6638,887.90533,300.43698,886.96173Q301.05823,886.2056,301.29562,885.5016L300.17743,884.7566Q299.90375,884.5516,299.56104,884.67267Q299.5526,884.67566,299.54416,884.6791Q299.32623,884.76587,299.0343,885.127Q298.73093,885.5025,298.29895,885.9402Q297.6653,886.5664,297.2016,886.9148Q296.7057,887.2803,295.89658,887.6022Q295.70773,887.67725,295.50168,887.7501Q294.50333,888.1029,293.4178,888.0672Q292.41736,888.03516,291.49823,887.5216Q290.49326,886.95483,289.84335,886.1117Q289.0652,885.09576,288.56497,883.67993L288.5659,883.67957L298.81857,880.0568Q298.84375,880.0478,298.86774,880.0383Q299.21167,879.9016,299.29105,879.6384Q299.3523,879.4324,299.11008,878.7468Q298.55713,877.18195,297.601,875.9942Q296.7678,874.9643,295.47607,874.29755Q294.35098,873.7228,293.00073,873.6971Q291.63306,873.6671,290.30817,874.1287L290.3092,874.12836Q290.3214,874.1241,290.3337,874.11975L290.30023,874.132L290.2984,874.13214Q290.12787,874.19324,289.96326,874.25867 Z M304.1219,869.2573Q301.6663,870.234,300.6886,871.96954Q299.6756,873.7525,300.3285,875.60046Q300.97104,877.41876,302.62665,878.024Q303.5219,878.3278,304.2979,878.3891Q304.98367,878.4317,307.49197,878.36694Q308.12064,878.29565,308.9422,878.39087Q309.44827,878.44696,310.1147,878.8149Q310.6347,879.1006,310.94006,879.9649Q311.23492,880.79944,310.68304,881.79926Q310.1034,882.796,308.79428,883.31683Q308.69052,883.35803,308.58182,883.3965Q306.64444,884.081,305.2213,883.89655Q305.00275,883.4206,304.76425,882.93494Q304.54034,882.444,304.43698,882.2459Q304.35358,882.05743,304.3378,882.0126Q304.1219,881.6865,303.76434,881.8129L302.66153,882.20325L304.08313,886.2266Q306.83197,886.17737,309.38037,885.27704Q309.53992,885.2206,309.6937,885.15924Q311.8985,884.28204,312.95837,882.40344Q314.00024,880.5602,313.21564,878.3393Q312.61005,876.62555,311.0107,876.0843Q310.05484,875.7514,309.44983,875.74725L307.7795,875.717Q307.45953,875.7128,306.7002,875.7466Q305.96115,875.78973,305.6814,875.80457Q304.40753,875.8524,303.54895,875.368Q303.0447,875.1271,302.7656,874.33704Q302.49698,873.577,303.0904,872.6465Q303.68353,871.7192,304.79645,871.2763Q304.879,871.24347,304.96445,871.2132L304.99442,871.20306Q305.87357,870.8921,307.48495,870.7082Q307.71927,871.229,307.96313,871.7293Q308.18692,872.2204,308.29053,872.4184Q308.37903,872.6218,308.3896,872.6517Q308.6318,873.0523,309.064,872.8996L310.2415,872.48395L309.21448,869.5774L308.8406,868.51935Q306.10947,868.55334,304.5477,869.0974L304.5488,869.097Q304.55023,869.0965,304.55167,869.09595L304.54855,869.09753L304.5484,869.0971Q304.3297,869.17444,304.1219,869.2573 Z M310.49817,867.2798L310.95108,868.5616Q311.12485,869.05334,311.63327,868.97424Q311.96823,868.9733,313.47357,868.7262L316.16977,876.3568Q317.08603,878.95,319.01175,880.13043Q320.95166,881.2555,323.42557,880.3815Q323.5621,880.3331,323.69522,880.28033Q326.43698,879.18933,327.68362,876.11084L328.48633,877.6711Q328.87054,878.1893,329.42188,877.99445L333.2376,876.6469L332.77402,875.33484Q332.61072,874.8729,332.11716,874.94684Q331.81726,874.9521,330.24695,875.2052L325.5657,861.95605L322.8531,862.91425L320.66248,863.6883L321.1258,864.9999Q321.29965,865.4916,321.7783,865.42316Q323.34854,865.17004,323.64825,865.16486L326.88675,874.3304Q325.77972,877.0199,323.6517,877.8666Q323.56027,877.90295,323.4669,877.93604L323.4564,877.9063Q321.8318,878.4803,320.67508,877.8161Q319.53864,877.16144,318.9015,875.35815L315.4313,865.5367L310.49838,867.2803 Z M329.60452,860.52905L330.05743,861.8107Q330.23117,862.3025,330.68002,862.2445Q330.9448,862.2347,332.57983,861.97546L336.47665,873.0041L334.81894,873.95856Q334.4333,874.1955,334.60703,874.6871L335.05994,875.96893L342.16895,873.45715L341.71603,872.17535Q341.5423,871.6836,341.04874,871.7575Q340.95932,871.789,340.0764,871.8998L339.18915,872.04565L335.90848,862.76086Q336.73132,860.2895,338.5186,859.57855Q338.5862,859.5516,338.6553,859.52716Q341.5764,858.49506,342.87158,862.1612L346.3524,872.0125L351.27075,870.2752L350.80716,868.96313Q350.64392,868.5012,350.15027,868.57513Q349.69177,868.6532,349.2578,868.706Q348.84396,868.76843,348.5993,868.7877Q348.36014,868.82214,348.2951,868.82825L345.5989,861.1975Q344.97763,859.4391,345.6234,858.08765Q346.17642,856.93054,347.46176,856.4191Q347.54297,856.38666,347.62723,856.35693Q349.10254,855.83563,350.28366,856.47455Q351.38428,857.0746,352.0478,858.9524L355.52853,868.8036L360.44678,867.06586L359.9728,865.7245Q359.80957,865.2626,359.31613,865.3365Q359.05118,865.3461,357.41614,865.60535L354.71994,857.9748Q353.73,855.17303,351.84637,854.112Q350.90186,853.5737,349.79187,853.56366Q348.5617,853.54565,347.2801,853.9985Q347.1964,854.028,347.11346,854.06116Q345.89822,854.5447,344.86697,855.75665Q343.78964,857.0257,343.71326,858.8969Q342.7449,857.57935,341.48553,857.0519Q340.18607,856.5051,338.60617,857.06335Q338.51257,857.0965,338.42117,857.13293Q336.1492,858.0367,335.09265,861.0206L335.0821,860.99066L334.31534,859.4849Q333.94162,858.9966,333.3901,859.19147L331.79556,859.75525L329.60452,860.52905 Z M363.12457,848.4083Q361.67307,848.9857,360.68997,849.91437Q359.5347,851.00977,358.9688,852.3496Q358.44135,853.6089,358.40152,855.2993Q358.36966,856.8697,358.93317,858.4643Q359.63882,860.4614,360.7378,861.81647Q361.87286,863.226,363.17422,863.8726Q364.6019,864.592,366.10294,864.6651Q367.60397,864.7381,369.2583,864.15356Q369.41092,864.09973,369.56876,864.03705Q370.18195,863.7929,370.87482,863.4148Q371.4789,863.0839,372.37643,862.3982Q372.82526,862.05505,373.5984,861.1116Q374.21954,860.3554,374.457,859.6512L373.3388,858.9065Q373.0652,858.7015,372.7224,858.8225Q372.71408,858.82556,372.7056,858.8287Q372.4875,858.9156,372.19574,859.27686Q371.89246,859.6522,371.46033,860.0899Q370.8265,860.7161,370.3629,861.0644Q369.86694,861.4299,369.0577,861.7518Q368.869,861.82684,368.66318,861.8997Q367.66458,862.2525,366.57904,862.2169Q365.57867,862.18475,364.65964,861.6713Q363.65457,861.1046,363.00452,860.2612Q362.22647,859.2454,361.72626,857.82947L361.72794,857.8288L371.98004,854.2064Q372.00507,854.1976,372.02917,854.1882Q372.37286,854.05133,372.45236,853.78815Q372.5136,853.582,372.27145,852.8964Q371.71844,851.3318,370.7625,850.1439Q369.9291,849.114,368.6375,848.44727Q367.51236,847.8725,366.1621,847.8467Q364.79648,847.81683,363.47345,848.2771L363.47516,848.2763Q363.48508,848.2728,363.4951,848.2693L363.4702,848.278L363.46915,848.2784Q363.29373,848.34094,363.12457,848.4083 Z" />
            </g>
            <g class="svg-blue-300 svg-opacity-51 miter">
                <path d="M126.79735,848.8128L159.32446,837.3203L191.85152,825.82776Q205.32047,863.94714,218.78938,902.06665Q186.2624,913.55975,153.73544,925.0529Q140.26634,886.9329,126.79735,848.8128" />
            </g>
            <g class="svg-gray-400 svg-opacity-100 miter">
                <path d="M173.516,877.48157C182.76733,874.2117,182.82391,863.7724,181.00655,855.8547C178.76794,846.10095,171.84235,840.6118,161.74884,844.17816C151.65729,847.7438,149.71524,856.36584,154.1012,865.36127C157.66228,872.66187,164.26399,880.7519,173.516,877.48157 Z" />
            </g>
            <g class="svg-gray-400 svg-opacity-100 miter">
                <path d="M206.33766,890.6971C205.19301,887.7802,203.79904,884.9362,202.2566,882.21136C200.38823,878.91064,197.76932,874.0287,193.88435,872.82074C191.63739,872.12213,189.18114,872.5005,186.86298,872.41943C185.73474,872.3802,184.71072,872.30707,183.72221,872.1614C182.00044,876.23755,178.90439,879.1454,174.63527,880.6544C170.36752,882.16223,166.13228,881.8446,162.23158,879.7547C161.55424,880.48926,160.8033,881.1894,159.95027,881.92865C158.19748,883.44806,156.04875,884.6968,154.73988,886.6518C152.47614,890.03314,153.5055,895.4761,154.12537,899.2176C154.63712,902.3067,155.33908,905.3952,156.2813,908.3837C157.01123,910.6986,158.25372,910.62,160.41112,910.6346C163.11241,910.65204,165.81271,910.4193,168.48883,910.0653C173.657,909.3815,178.89032,908.4106,183.83879,906.70154C188.76271,904.9221,193.44441,902.3899,197.89502,899.6752C200.19937,898.2698,202.44658,896.754,204.53699,895.0435C206.20726,893.6767,207.223,892.95703,206.33669,890.69745 Z" />
            </g>
            <g class="svg-gray-300 svg-opacity-99 miter">
                <path d="M274.63586,1221.4014L401.0936,1176.7198L527.5509,1132.0388Q532.3849,1145.7197,537.2189,1159.401Q410.76172,1204.0826,284.30435,1248.7649Q279.47012,1235.0833,274.63586,1221.4014" />
            </g>
            <g class="svg-blue-400 svg-opacity-100 miter">
                <path d="M280.14087,1194.1754L388.60773,1155.851L393.3678,1169.3231L284.9015,1207.6492L280.14087,1194.1754 Z" />
            </g>
            <g class="svg-blue-400 svg-opacity-100 miter">
                <path d="M272.9549,1173.8375L356.97314,1144.1525L440.99066,1114.4661Q443.3707,1121.2021,445.75098,1127.9387Q361.7335,1157.6251,277.71558,1187.3114Q275.33517,1180.5746,272.9549,1173.8375 Z" />
            </g>
            <g class="svg-blue-400 svg-opacity-100 miter">
                <path d="M265.76923,1153.5007L330.75095,1130.5414L395.73224,1107.5807Q398.11224,1114.3165,400.4927,1121.0536Q335.5114,1144.0143,270.5299,1166.9746Q268.14963,1160.2375,265.76923,1153.5007 Z" />
            </g>
            <g class="svg-blue-400 svg-opacity-100 miter">
                <path d="M258.58365,1133.1641L340.9938,1104.0455L423.40408,1074.9277Q425.7841,1081.6636,428.16446,1088.4004Q345.7545,1117.5192,263.34418,1146.6372Q260.96378,1139.9004,258.58365,1133.1641 Z" />
            </g>
            <g class="svg-blue-400 svg-opacity-100 miter">
                <path d="M250.62161,1115.1228L359.08853,1076.7985L363.8486,1090.2704L255.3822,1128.5962L250.62161,1115.1228 Z" />
            </g>
            <g class="svg-blue-400 svg-opacity-100 miter">
                <path d="M243.4357,1094.7854L327.45407,1065.0997L411.4715,1035.4131Q413.85162,1042.1494,416.23206,1048.8862Q332.21442,1078.5724,248.19629,1108.2588Q245.81589,1101.5217,243.4357,1094.7854 Z" />
            </g>
            <g class="svg-blue-400 svg-opacity-100 miter">
                <path d="M229.06433,1054.1118L311.47458,1024.9926L393.88452,995.8746Q396.26492,1002.61127,398.64502,1009.3476Q316.23517,1038.466,233.82489,1067.585Q231.44455,1060.8481,229.06433,1054.1118 Z" />
            </g>
            <g class="svg-blue-400 svg-opacity-100 miter">
                <path d="M236.24985,1074.448L301.2317,1051.4886L366.21274,1028.528Q368.59302,1035.2645,370.97327,1042.0011Q305.9921,1064.9615,241.01062,1087.9219Q238.63019,1081.1848,236.24985,1074.448 Z" />
            </g>
            <g class="svg-gray-600 svg-opacity-100 miter">
                <path d="M209.76942,1062.8716L215.08662,1060.9934L220.40369,1059.1152Q222.1246,1063.9856,223.84552,1068.8562Q218.52872,1070.7349,213.21165,1072.6135Q211.4906,1067.7427,209.76942,1062.8716 Z" />
            </g>
            <g class="svg-gray-600 svg-opacity-100 miter">
                <path d="M216.87883,1082.9927L227.51297,1079.2358L230.95493,1088.977L220.32098,1092.7349L216.87883,1082.9927 Z" />
            </g>
            <g class="svg-gray-600 svg-opacity-100 miter">
                <path d="M223.98842,1103.114L229.30576,1101.2358L234.62234,1099.3564Q236.34341,1104.2273,238.06418,1109.0977Q232.74731,1110.9763,227.43039,1112.8552Q225.70949,1107.9849,223.98842,1103.114 Z" />
            </g>
            <g class="svg-gray-600 svg-opacity-100 miter">
                <path d="M231.09769,1123.2344L241.73181,1119.4775L245.17343,1129.2183L234.5398,1132.9758L231.09769,1123.2344 Z" />
            </g>
            <g class="svg-gray-600 svg-opacity-100 miter">
                <path d="M237.87775,1142.4231L243.1948,1140.5444L248.51184,1138.6663Q250.23276,1143.5366,251.9537,1148.4075Q246.6369,1150.2861,241.31982,1152.1648Q239.59879,1147.294,237.87775,1142.4231 Z" />
            </g>
            <g class="svg-gray-600 svg-opacity-100 miter">
                <path d="M259.2058,1202.7856L269.8401,1199.029L273.28165,1208.7695L262.64767,1212.5271L259.2058,1202.7856 Z" />
            </g>
            <g class="svg-gray-600 svg-opacity-100 miter">
                <path d="M252.0964,1182.6648L257.414,1180.7874L262.7304,1178.9075Q264.45154,1183.7786,266.17236,1188.6487Q260.85544,1190.5273,255.53857,1192.4065Q253.81747,1187.5359,252.0964,1182.6648 Z" />
            </g>
            <g class="svg-gray-600 svg-opacity-100 miter">
                <path d="M244.98715,1162.544L255.62115,1158.7869L259.063,1168.5278L248.42905,1172.2854L244.98715,1162.544 Z" />
            </g>
        </g>
        <g>
            <g class="svg-white svg-opacity-100 miter">>
                <path d="M183.03288,873.68835L340.04462,818.2112L497.05615,762.7342Q573.32874,978.5999,649.6013,1194.4651Q492.59003,1249.9434,335.57852,1305.4209Q259.30576,1089.5547,183.03288,873.68835" />
            </g>
            <g class="svg-gray-300 svg-opacity-78 miter">
                <path d="M435.2558,796.5645L490.7796,776.9467L494.50964,787.50354L438.98624,807.1225L435.2558,796.5645" />
            </g>
            <g class="svg-gray-300 svg-opacity-78 miter">
                <path d="M457.99448,804.471L495.7868,791.1179L499.51697,801.6752L461.72488,815.0289L457.99448,804.471" />
            </g>
            <g class="svg-gray-300 svg-opacity-61 miter">
                <path d="M489.21533,1020.1346L566.6221,992.78546L619.7538,1143.1577L542.3478,1170.5095L489.21533,1020.1346" />
            </g>
            <g class="svg-blue-300 svg-opacity-99 miter">
                <path d="M503.7223,1019.89435L529.45325,1010.80316L555.1843,1001.71185Q557.9346,1009.49567,560.68494,1017.27936Q534.954,1026.3711,509.22314,1035.4629Q506.47272,1027.679,503.7223,1019.89435" />
            </g>
            <g class="svg-blue-300 svg-opacity-44 miter">
                <path d="M251.17548,994.00836L375.5434,950.0653L499.91113,906.1225Q513.84534,945.55896,527.77954,984.9954Q403.41208,1028.9388,279.04428,1072.8824Q265.1099,1033.4456,251.17548,994.00836" />
            </g>
            <g class="svg-blue-300 svg-opacity-99 miter">
                <path d="M314.73364,910.61426L386.1306,885.3875L457.52774,860.16095Q463.54318,877.1862,469.55887,894.21155Q398.16183,919.4384,326.76526,944.66565Q320.74945,927.6399,314.73364,910.61426" />
            </g>
            <g class="svg-blue-400 svg-opacity-100 miter">
                <path d="M340.4133,909.6518L343.36435,908.6097Q345.9276,907.7035,347.52713,908.24475Q349.1669,908.8053,349.84085,910.7127Q350.19904,911.7263,350.1397,912.6023Q350.07507,913.46326,349.60013,914.3016Q349.08136,915.2058,348.2873,915.8048Q347.5805,916.33374,346.53198,916.75104Q346.33594,916.82886,346.12793,916.90314L346.1273,916.9034L343.32532,917.89343L340.4133,909.6518 Z M364.39175,907.73975Q364.5174,907.6898,364.64877,907.6433L364.6295,907.6837Q365.58325,907.3467,366.42416,907.40155Q367.26514,907.45654,367.98672,907.83844Q368.54715,908.14343,369.2067,908.9663Q369.7795,909.68604,370.09024,910.56525L361.68488,913.536Q361.25256,911.4585,361.97876,909.86084Q362.62106,908.4443,364.39175,907.73975 Z M437.55316,881.88947Q437.67886,881.8394,437.81018,881.793L437.79102,881.8333Q438.74466,881.4964,439.5855,881.55115Q440.42636,881.60626,441.148,881.9883Q441.70844,882.2933,442.36804,883.11633Q442.941,883.836,443.2517,884.7152L434.8462,887.68567Q434.41388,885.6083,435.14014,884.0105Q435.78244,882.59393,437.55316,881.88947 Z M334.44925,909.0937L334.92322,910.43494Q335.08124,910.8821,335.5652,910.82837Q335.85452,910.7932,337.46503,910.5595L343.61035,927.95166L341.96844,928.9508Q341.55826,929.21313,341.71625,929.66034L342.1797,930.972L344.37033,930.1977L347.33624,929.1501L349.52704,928.37573L349.06357,927.0642Q348.99515,926.8704,348.78818,926.7591Q348.6014,926.6576,348.3769,926.6864Q348.1174,926.7111,346.5463,926.9142L344.11353,920.02893L346.06598,919.3396Q346.7067,919.1127,347.03812,919.1967Q347.4248,919.29474,347.77377,919.5235L356.21133,925.3265Q356.79556,925.84106,357.60037,925.55664L358.56927,925.21466L360.22333,924.6299L360.7748,924.435L360.30087,923.09375Q360.1429,922.6466,359.6441,922.7054L359.64502,922.70496L359.67395,922.6953Q359.50897,922.7029,357.85464,923.0025L350.83948,918.18884Q350.23172,917.74976,349.5347,917.62726Q350.55325,916.9991,351.48932,915.9477Q352.2833,915.0635,352.68375,913.9665Q353.08395,912.86945,353.09406,911.7595Q353.09814,910.5846,352.71365,909.4966Q352.21872,908.09576,351.35638,907.12634Q350.52493,906.1964,349.21658,905.7199Q347.92844,905.25305,346.28094,905.3825Q344.55377,905.5234,342.52692,906.23944L336.64017,908.32007L334.44925,909.0937 Z M363.5482,905.8108Q362.0967,906.3883,361.11343,907.3168Q359.95822,908.41223,359.39224,909.75214Q358.86505,911.0114,358.8251,912.70184Q358.7933,914.2721,359.35672,915.86676Q360.06235,917.86395,361.16147,919.2189Q362.2964,920.6284,363.5979,921.275Q365.0255,921.9944,366.52655,922.0674Q368.02765,922.1406,369.68198,921.5561Q369.83453,921.50214,369.99228,921.43945Q370.60544,921.19543,371.29834,920.81726Q371.90256,920.48645,372.8,919.80035Q373.24872,919.45734,374.0219,918.51373Q374.64316,917.7577,374.88055,917.0536L373.76236,916.30865Q373.48868,916.10364,373.14597,916.2247Q373.13754,916.22766,373.1291,916.2311Q372.91116,916.3179,372.61923,916.679Q372.31586,917.0545,371.88388,917.4922Q371.25024,918.1184,370.78653,918.4668Q370.29062,918.8323,369.4815,919.1542Q369.29266,919.22925,369.0866,919.3021Q368.08826,919.6549,367.00272,919.6192Q366.0023,919.58716,365.08316,919.07367Q364.0782,918.5069,363.42828,917.66376Q362.65012,916.6478,362.1499,915.232L362.15082,915.2316L372.4035,911.6088Q372.42868,911.59985,372.45267,911.59033Q372.7966,911.4536,372.87598,911.1904Q372.93723,910.9844,372.695,910.2988Q372.14206,908.73395,371.18594,907.5462Q370.35272,906.51636,369.061,905.84955Q367.9359,905.2748,366.58566,905.2491Q365.218,905.2191,363.8931,905.68085L363.89413,905.6804Q363.90634,905.67615,363.91864,905.6718L363.88516,905.6841L363.88333,905.6842Q363.7128,905.74536,363.5482,905.8108 Z M377.70682,900.8093Q375.25122,901.786,374.27353,903.52155Q373.26053,905.3045,373.91342,907.15247Q374.55597,908.97076,376.21158,909.57605Q377.10684,909.8798,377.88284,909.9411Q378.5686,909.9837,381.0769,909.91895Q381.70557,909.84766,382.52713,909.94293Q383.0332,909.99896,383.69962,910.3669Q384.21964,910.6526,384.525,911.51697Q384.81985,912.35144,384.26797,913.35126Q383.68832,914.348,382.3792,914.86884Q382.27545,914.91003,382.16675,914.9485Q380.22937,915.633,378.80624,915.44855Q378.58768,914.9726,378.34918,914.48694Q378.12527,913.99603,378.0219,913.7979Q377.9385,913.60944,377.92273,913.5646Q377.70682,913.2385,377.34927,913.3649L376.24646,913.75525L377.66806,917.7786Q380.4169,917.7294,382.9653,916.82904Q383.12485,916.7726,383.27863,916.71124Q385.48343,915.8341,386.5433,913.95544Q387.58517,912.1122,386.80057,909.8913Q386.19498,908.17755,384.59564,907.6363Q383.63977,907.3034,383.03476,907.29926L381.36444,907.269Q381.04446,907.26483,380.28513,907.2986Q379.54608,907.34174,379.26633,907.35657Q377.99246,907.4044,377.13388,906.92Q376.62964,906.67914,376.35052,905.88904Q376.0819,905.1291,376.67532,904.1985Q377.26846,903.2712,378.38138,902.8283Q378.46393,902.7955,378.54938,902.7652L378.57935,902.75507Q379.4585,902.4441,381.0699,902.2602Q381.3042,902.781,381.54807,903.2813Q381.77185,903.77246,381.87546,903.9704Q381.96396,904.1739,381.97452,904.20374Q382.21674,904.6044,382.64893,904.4516L383.82642,904.03595L382.79938,901.1294L382.42554,900.07135Q379.6944,900.1054,378.13263,900.6494L378.13373,900.649Q378.13516,900.6485,378.1366,900.64795L378.13348,900.64954L378.13333,900.6491Q377.91464,900.72644,377.70682,900.8093 Z M384.0831,898.8318L384.536,900.1136Q384.70978,900.60535,385.2182,900.52625Q385.55316,900.5253,387.0585,900.2782L389.7547,907.9088Q390.67096,910.502,392.59668,911.68243Q394.53656,912.8075,397.01047,911.9335Q397.147,911.88513,397.28012,911.83234Q400.02188,910.74133,401.26852,907.66284L402.07123,909.2231Q402.45544,909.7413,403.00677,909.54645L406.8225,908.1989L406.35892,906.88684Q406.19562,906.425,405.70206,906.49884Q405.40216,906.5041,403.83185,906.7572L399.1506,893.508L396.438,894.46625L394.24738,895.24023L394.7107,896.5519Q394.88455,897.04364,395.3632,896.97516Q396.93344,896.7221,397.23315,896.71686L400.47165,905.8824Q399.36462,908.57196,397.2366,909.4186Q397.14517,909.45496,397.0518,909.48804L397.0413,909.4583Q395.4167,910.03235,394.25998,909.36816Q393.12357,908.7135,392.48642,906.9102L389.01624,897.0887L384.0833,898.8323 Z M403.18942,892.081L403.64233,893.3627Q403.81607,893.85443,404.26492,893.79645Q404.5297,893.7867,406.16473,893.5274L410.0616,904.5562L408.4039,905.5106Q408.01825,905.74756,408.192,906.2392L408.6449,907.521L415.7539,905.0092L415.301,903.7274Q415.12726,903.23566,414.6337,903.3096Q414.54428,903.34106,413.66135,903.4519L412.7741,903.5977L409.49344,894.3129Q410.31628,891.84155,412.10355,891.1306Q412.17117,891.10364,412.24026,891.0792Q415.16135,890.0471,416.45654,893.71326L419.93735,903.56464L424.8557,901.8273L424.39212,900.5152Q424.22888,900.05334,423.73523,900.1272Q423.27673,900.20526,422.84277,900.25806Q422.4289,900.3205,422.18427,900.3398Q421.9451,900.3742,421.88007,900.3803L419.18387,892.7496Q418.5626,890.99115,419.20837,889.6397Q419.76138,888.4826,421.04672,887.9712Q421.12793,887.9387,421.2122,887.90906Q422.6875,887.3877,423.86862,888.0266Q424.96924,888.62665,425.63275,890.50446L429.1135,900.3557L434.03174,898.618L433.55777,897.27655Q433.39453,896.8147,432.9011,896.88855Q432.63614,896.8982,431.0011,897.1575L428.3049,889.52686Q427.31497,886.7251,425.43134,885.66406Q424.4868,885.1258,423.37683,885.1157Q422.14667,885.0978,420.86505,885.55054Q420.78137,885.58014,420.69843,885.6132Q419.4832,886.09674,418.45193,887.3087Q417.3746,888.57776,417.29822,890.449Q416.32983,889.1314,415.0705,888.60394Q413.77103,888.05725,412.19113,888.6154Q412.09753,888.64856,412.00613,888.68506Q409.73416,889.58875,408.6776,892.57275L408.66705,892.5428L407.9003,891.03705Q407.52658,890.54865,406.975,890.7434L405.38046,891.3072L403.18942,892.081 Z M436.70953,879.96045Q435.25803,880.5378,434.27493,881.46643Q433.11966,882.5619,432.55377,883.9017Q432.0263,885.16095,431.98648,886.8514Q431.95462,888.42175,432.5181,890.01636Q433.2238,892.0135,434.32275,893.3685Q435.45782,894.7781,436.7592,895.4247Q438.18686,896.1441,439.6879,896.2172Q441.18893,896.2902,442.84326,895.7057Q442.99588,895.65186,443.15372,895.5892Q443.7669,895.34503,444.45978,894.9669Q445.06387,894.63605,445.9614,893.9504Q446.4102,893.6072,447.18335,892.6637Q447.8045,891.90753,448.04196,891.2033L446.92377,890.4586Q446.65015,890.2536,446.30737,890.3747Q446.29904,890.3777,446.29056,890.3808Q446.07245,890.4677,445.7807,890.82904Q445.47742,891.20435,445.0453,891.642Q444.41147,892.26825,443.94788,892.6165Q443.4519,892.982,442.64267,893.3039Q442.45395,893.37897,442.24814,893.45184Q441.24954,893.8046,440.164,893.76904Q439.16364,893.7369,438.24457,893.2235Q437.23953,892.6567,436.58948,891.8133Q435.81143,890.7975,435.31122,889.38153L435.3129,889.38086L445.565,885.75854Q445.59003,885.7497,445.61414,885.7403Q445.95782,885.60345,446.03732,885.34033Q446.09857,885.1341,445.8564,884.44855Q445.3034,882.8839,444.34747,881.69604Q443.51407,880.6662,442.22247,879.9994Q441.09732,879.4246,439.74707,879.3988Q438.38144,879.36896,437.0584,879.82916L437.06012,879.82837Q437.07,879.8249,437.08005,879.82135L437.05518,879.8301L437.0541,879.8305Q436.8787,879.89307,436.70953,879.96045 Z" />
            </g>
            <g class="svg-blue-400 svg-opacity-51 miter">
                <path d="M200.38226,880.3649L232.90936,868.8723L265.4364,857.37976Q278.90536,895.4992,292.3743,933.6188Q259.84732,945.1118,227.32034,956.60504Q213.85126,918.4849,200.38226,880.3649" />
            </g>
            <g class="svg-gray-400 svg-opacity-100 miter">
                <path d="M247.10092,909.03357C256.35223,905.7637,256.4088,895.3244,254.59143,887.4067C252.35284,877.65295,245.42725,872.1639,235.33374,875.73016C225.24219,879.2958,223.30014,887.91785,227.6861,896.91327C231.2472,904.21387,237.8489,912.3039,247.10092,909.03357 Z" />
            </g>
            <g class="svg-gray-400 svg-opacity-100 miter">
                <path d="M279.9226,922.2492C278.77795,919.33234,277.38397,916.48834,275.84155,913.7635C273.97314,910.4628,271.35422,905.5807,267.46924,904.37274C265.22232,903.6742,262.76605,904.05255,260.44788,903.97144C259.31967,903.93225,258.29562,903.85913,257.30713,903.7134C255.58536,907.78955,252.48932,910.6974,248.22018,912.2064C243.95242,913.71423,239.7172,913.3966,235.8165,911.3067C235.13916,912.04126,234.38821,912.7414,233.53519,913.48065C231.78241,915.00006,229.63367,916.2488,228.3248,918.2038C226.06104,921.58514,227.09042,927.02814,227.71027,930.7696C228.22202,933.8587,228.92401,936.9472,229.86621,939.9357C230.59613,942.2506,231.83862,942.172,233.99603,942.1866C236.69733,942.2041,239.39761,941.9713,242.07376,941.6173C247.24191,940.9335,252.47522,939.9626,257.4237,938.25354C262.34763,936.4741,267.0293,933.9419,271.47992,931.2272C273.7843,929.8219,276.0315,928.30615,278.12192,926.59564C279.7922,925.2289,280.80795,924.50916,279.9216,922.2496 Z" />
            </g>
            <g class="svg-gray-300 svg-opacity-99 miter">
                <path d="M348.22083,1252.9535L474.67853,1208.2721L601.136,1163.5911Q605.97,1177.272,610.80396,1190.9531Q484.34668,1235.6346,357.88934,1280.317Q353.0551,1266.6354,348.22083,1252.9535" />
            </g>
            <g class="svg-blue-400 svg-opacity-100 miter">
                <path d="M353.72577,1225.7275L462.19266,1187.4032L466.95276,1200.8754L358.48642,1239.2012L353.72577,1225.7275 Z" />
            </g>
            <g class="svg-blue-400 svg-opacity-100 miter">
                <path d="M346.5398,1205.3896L430.55814,1175.7047L514.5757,1146.0181Q516.9557,1152.7543,519.33594,1159.4908Q435.31848,1189.1774,351.30048,1218.8635Q348.92007,1212.1267,346.5398,1205.3896 Z" />
            </g>
            <g class="svg-blue-400 svg-opacity-100 miter">
                <path d="M339.3542,1185.0529L404.33588,1162.0934L469.3172,1139.1328Q471.6972,1145.8687,474.07767,1152.6058Q409.09637,1175.5665,344.11487,1198.5269Q341.7346,1191.7899,339.3542,1185.0529 Z" />
            </g>
            <g class="svg-blue-400 svg-opacity-100 miter">
                <path d="M332.1686,1164.7162L414.57877,1135.5977L496.989,1106.4797Q499.36902,1113.2156,501.7494,1119.9524Q419.33948,1149.0713,336.92914,1178.1893Q334.54874,1171.4525,332.1686,1164.7162 Z" />
            </g>
            <g class="svg-blue-400 svg-opacity-100 miter">
                <path d="M324.20657,1146.6749L432.6735,1108.3508L437.4336,1121.8225L328.96716,1160.1483L324.20657,1146.6749 Z" />
            </g>
            <g class="svg-blue-400 svg-opacity-100 miter">
                <path d="M317.02066,1126.3375L401.03897,1096.6517L485.0564,1066.9653Q487.43658,1073.7014,489.81696,1080.4382Q405.79932,1110.1244,321.78125,1139.8109Q319.40085,1133.0739,317.02066,1126.3375 Z" />
            </g>
            <g class="svg-blue-400 svg-opacity-100 miter">
                <path d="M302.64926,1085.6637L385.05948,1056.5446L467.46954,1027.4268Q469.84995,1034.1636,472.23004,1040.8999Q389.8201,1070.018,307.40982,1099.1371Q305.02948,1092.4003,302.64926,1085.6637 Z" />
            </g>
            <g class="svg-blue-400 svg-opacity-100 miter">
                <path d="M309.83478,1106.0001L374.81656,1083.0406L439.79773,1060.0801Q442.178,1066.8167,444.55826,1073.5532Q379.57697,1096.5135,314.59558,1119.474Q312.21512,1112.7369,309.83478,1106.0001 Z" />
            </g>
            <g class="svg-gray-600 svg-opacity-100 miter">
                <path d="M283.35437,1094.4235L288.67154,1092.5453L293.98862,1090.6671Q295.70953,1095.5375,297.43045,1100.4081Q292.11365,1102.287,286.79657,1104.1656Q285.07553,1099.2948,283.35437,1094.4235 Z" />
            </g>
            <g class="svg-gray-600 svg-opacity-100 miter">
                <path d="M290.46375,1114.5448L301.0979,1110.7877L304.5399,1120.5292L293.9059,1124.2867L290.46375,1114.5448 Z" />
            </g>
            <g class="svg-gray-600 svg-opacity-100 miter">
                <path d="M297.57336,1134.6659L302.89072,1132.788L308.2073,1130.9086Q309.92838,1135.7794,311.64914,1140.6498Q306.33228,1142.5284,301.01535,1144.4073Q299.29443,1139.5367,297.57336,1134.6659 Z" />
            </g>
            <g class="svg-gray-600 svg-opacity-100 miter">
                <path d="M304.68265,1154.7865L315.31677,1151.0297L318.7584,1160.7704L308.12476,1164.5282L304.68265,1154.7865 Z" />
            </g>
            <g class="svg-gray-600 svg-opacity-100 miter">
                <path d="M311.4627,1173.9752L316.77975,1172.0966L322.0968,1170.2184Q323.81772,1175.0887,325.53867,1179.9596Q320.22186,1181.8383,314.9048,1183.7169Q313.18375,1178.8461,311.4627,1173.9752 Z" />
            </g>
            <g class="svg-gray-600 svg-opacity-100 miter">
                <path d="M332.79074,1234.3379L343.425,1230.5813L346.86658,1240.3215L336.23264,1244.0793L332.79074,1234.3379 Z" />
            </g>
            <g class="svg-gray-600 svg-opacity-100 miter">
                <path d="M325.68134,1214.217L330.99893,1212.3396L336.31534,1210.4597Q338.03644,1215.3308,339.7573,1220.2009Q334.44037,1222.0796,329.1235,1223.9587Q327.4024,1219.0881,325.68134,1214.217 Z" />
            </g>
            <g class="svg-gray-600 svg-opacity-100 miter">
                <path d="M318.5721,1194.0961L329.20612,1190.339L332.64792,1200.0801L322.01398,1203.8376L318.5721,1194.0961 Z" />
            </g>
        </g>
        <g>
            <g class="svg-white svg-opacity-100 miter">>
                <path d="M246.72409,919.4026L403.73578,863.9254L560.74744,808.44855Q637.02,1024.3143,713.2927,1240.1793Q556.2811,1295.6575,399.26978,1351.1354Q322.997,1135.2689,246.72409,919.4026" />
            </g>
            <g class="svg-gray-300 svg-opacity-78 miter">
                <path d="M498.94696,842.27875L554.4708,822.661L558.2009,833.2179L502.67743,852.83673L498.94696,842.27875" />
            </g>
            <g class="svg-gray-300 svg-opacity-78 miter">
                <path d="M521.68567,850.18524L559.478,836.83234L563.20825,847.3895L525.416,860.7431L521.68567,850.18524" />
            </g>
            <g class="svg-gray-300 svg-opacity-61 miter">
                <path d="M552.9065,1065.849L630.31335,1038.4999L683.4452,1188.8722L606.0392,1216.2239L552.9065,1065.849" />
            </g>
            <g class="svg-blue-300 svg-opacity-99 miter">
                <path d="M567.4137,1065.6088L593.14465,1056.5177L618.8756,1047.4261Q621.62585,1055.2101,624.3762,1062.9935Q598.6454,1072.0856,572.91455,1081.1774Q570.16406,1073.3932,567.4137,1065.6088" />
            </g>
            <g class="svg-blue-300 svg-opacity-44 miter">
                <path d="M314.86676,1039.7228L439.23462,995.7796L563.6024,951.8369Q577.53674,991.2734,591.47095,1030.7098Q467.10333,1074.6531,342.73547,1118.5966Q328.80115,1079.1598,314.86676,1039.7228" />
            </g>
            <g class="svg-blue-300 svg-opacity-99 miter">
                <path d="M378.42487,956.3284L449.82187,931.10187L521.2189,905.87524Q527.2344,922.90045,533.25,939.92584Q461.85306,965.1528,390.45642,990.3798Q384.4406,973.35406,378.42487,956.3284" />
            </g>
            <g class="svg-blue-400 svg-opacity-100 miter">
                <path d="M404.1045,955.366L407.05554,954.3238Q409.61887,953.4178,411.21838,953.95905Q412.8582,954.5196,413.53214,956.42706Q413.8903,957.4406,413.83096,958.3166Q413.76633,959.17755,413.2914,960.0158Q412.77258,960.9201,411.97852,961.5191Q411.27173,962.04803,410.2232,962.4654Q410.0272,962.54315,409.81915,962.6175L409.8185,962.61774L407.01648,963.6076L404.1045,955.366 Z M428.083,953.4541Q428.20865,953.40424,428.34003,953.35767L428.32074,953.3981Q429.2745,953.06104,430.11542,953.1159Q430.9564,953.1709,431.67798,953.5528Q432.2384,953.8577,432.89798,954.6807Q433.4708,955.4003,433.7815,956.2796L425.37613,959.2503Q424.94382,957.1728,425.67,955.57513Q426.31232,954.1586,428.083,953.4541 Z M501.2444,927.6037Q501.37012,927.55365,501.5014,927.50726L501.48224,927.54755Q502.4359,927.21063,503.27673,927.2654Q504.11755,927.3205,504.83923,927.7025Q505.39966,928.0075,506.05927,928.83057Q506.6322,929.55023,506.94293,930.42944L498.5374,933.3999Q498.1051,931.3225,498.83136,929.72473Q499.47363,928.30817,501.2444,927.6037 Z M398.14047,954.8078L398.6144,956.1491Q398.77243,956.59625,399.25638,956.54254Q399.54572,956.5074,401.15622,956.27374L407.30154,973.66583L405.6596,974.665Q405.24945,974.9273,405.4074,975.37445L405.87088,976.6862L408.06155,975.9119L411.0275,974.8643L413.21826,974.09L412.7548,972.7785Q412.68637,972.58466,412.4794,972.47345Q412.29263,972.3719,412.0681,972.4007Q411.80862,972.4255,410.23755,972.6285L407.80475,965.7432L409.7572,965.0539Q410.39792,964.82697,410.72934,964.9111Q411.11606,965.0091,411.465,965.23773L419.90256,971.04083Q420.4868,971.55536,421.2916,971.27094L422.2605,970.929L423.91455,970.3442L424.46603,970.14935L423.9921,968.80804Q423.83414,968.3609,423.33536,968.4196L423.33624,968.41925L423.3652,968.4096Q423.2002,968.4172,421.54587,968.71686L414.5307,963.90314Q413.92297,963.46405,413.22595,963.3416Q414.2445,962.7133,415.18054,961.6619Q415.97452,960.7778,416.375,959.6807Q416.7752,958.5838,416.7853,957.4738Q416.7894,956.2989,416.4049,955.2109Q415.90997,953.8101,415.04764,952.84064Q414.2162,951.9107,412.90784,951.4342Q411.6197,950.9674,409.9722,951.0968Q408.24503,951.2377,406.2181,951.9536L400.33136,954.03424L398.14047,954.8078 Z M427.23944,951.5251Q425.788,952.1026,424.8047,953.03107Q423.64948,954.1265,423.0835,955.4665Q422.5563,956.72577,422.51636,958.4162Q422.48456,959.9864,423.04797,961.581Q423.75357,963.5783,424.8527,964.93317Q425.9876,966.3427,427.28912,966.9893Q428.71674,967.7088,430.21777,967.7818Q431.71887,967.85504,433.3732,967.27045Q433.52576,967.2165,433.68353,967.15375Q434.29666,966.90985,434.98956,966.53156Q435.59378,966.20087,436.4912,965.5147Q436.93994,965.1717,437.71317,964.2281Q438.33438,963.472,438.57178,962.768L437.45358,962.023Q437.1799,961.81793,436.8372,961.939Q436.82877,961.9421,436.8203,961.9455Q436.6024,962.0323,436.31046,962.3934Q436.00708,962.76886,435.5751,963.2066Q434.94147,963.8328,434.47775,964.1812Q433.98184,964.5466,433.17273,964.8686Q432.9839,964.94366,432.77783,965.0164Q431.77948,965.3693,430.69394,965.33356Q429.6935,965.30145,428.77438,964.788Q427.7694,964.2211,427.1195,963.3781Q426.34134,962.3621,425.84113,960.94635L425.84204,960.94586L436.0948,957.3232Q436.11993,957.31415,436.14392,957.3046Q436.48785,957.1679,436.56723,956.90485Q436.62848,956.6988,436.38626,956.01324Q435.8333,954.4483,434.8772,953.26056Q434.04398,952.2307,432.75226,951.5639Q431.62717,950.98914,430.27692,950.96344Q428.90927,950.9335,427.58435,951.39514L427.5854,951.3947Q427.5976,951.39044,427.6099,951.3861L427.57642,951.3984L427.5746,951.3985Q427.40405,951.45966,427.23944,951.5251 Z M441.39807,946.5237Q438.94247,947.50037,437.96478,949.2359Q436.95178,951.01886,437.60468,952.8668Q438.24722,954.6851,439.90283,955.29034Q440.7981,955.5942,441.5741,955.65546Q442.25986,955.69806,444.76816,955.63324Q445.39682,955.56195,446.21838,955.6573Q446.72446,955.7133,447.39087,956.08124Q447.9109,956.3669,448.21625,957.23126Q448.5111,958.06586,447.95923,959.0656Q447.37958,960.06244,446.07043,960.5832Q445.96667,960.6243,445.85797,960.6628Q443.9206,961.34735,442.49747,961.1629Q442.2789,960.68695,442.04044,960.20135Q441.81653,959.7104,441.71317,959.51227Q441.62976,959.3238,441.61398,959.279Q441.39807,958.9528,441.04053,959.0793L439.9377,959.46967L441.35928,963.493Q444.10812,963.4438,446.65652,962.5434Q446.81607,962.487,446.96985,962.4256Q449.17465,961.5484,450.23456,959.66986Q451.27643,957.8265,450.49185,955.60565Q449.88626,953.8919,448.2869,953.35065Q447.33102,953.01776,446.72604,953.0136L445.0557,952.98334Q444.73572,952.9792,443.9764,953.01294Q443.23734,953.0561,442.95758,953.0709Q441.68372,953.1188,440.82513,952.63434Q440.3209,952.3935,440.04178,951.6034Q439.77316,950.84344,440.36658,949.91284Q440.95972,948.98553,442.07263,948.54266Q442.15518,948.5098,442.24063,948.4796L442.2706,948.4694Q443.14975,948.15845,444.76114,947.97455Q444.99548,948.49536,445.23932,948.9957Q445.4631,949.4868,445.5667,949.68475Q445.6552,949.88824,445.66577,949.9181Q445.908,950.3187,446.34018,950.16595L447.51767,949.7503L446.49066,946.84375L446.1168,945.7857Q443.38565,945.81976,441.82388,946.3638L441.82498,946.36334Q441.82642,946.36285,441.82785,946.3623L441.82474,946.3639L441.8246,946.3635Q441.6059,946.4408,441.39807,946.5237 Z M447.77435,944.54614L448.22726,945.82794Q448.40103,946.3197,448.90945,946.2406Q449.24442,946.2397,450.74976,945.99255L453.44595,953.62317Q454.3622,956.2164,456.28793,957.3968Q458.2278,958.5219,460.70172,957.6479Q460.83826,957.59955,460.97137,957.5467Q463.71313,956.45575,464.95978,953.37726L465.76248,954.93744Q466.1467,955.4556,466.69803,955.2608L470.51382,953.91327L470.0502,952.60126Q469.8869,952.13934,469.39334,952.21326Q469.0934,952.21844,467.5231,952.47156L462.84186,939.2224L460.12924,940.18066L457.93863,940.9547L458.40195,942.26624Q458.5758,942.758,459.05444,942.6896Q460.6247,942.43646,460.9244,942.4312L464.1629,951.59674Q463.05588,954.2863,460.92786,955.133Q460.83643,955.16925,460.74304,955.20245L460.73254,955.17267Q459.10794,955.74664,457.95123,955.08246Q456.81482,954.4278,456.17767,952.6246L452.7075,942.80304L447.77457,944.54663 Z M466.88068,937.79535L467.3336,939.0771Q467.50732,939.56885,467.95618,939.51086Q468.22095,939.5011,469.85602,939.2419L473.75284,950.2705L472.09515,951.2249Q471.70947,951.46185,471.8832,951.9535L472.33612,953.2353L479.44513,950.7235L478.99222,949.4417Q478.81848,948.94995,478.32492,949.02386Q478.2355,949.0554,477.35257,949.1662L476.46533,949.312L473.18466,940.0272Q474.0075,937.5558,475.79477,936.84485Q475.86243,936.8179,475.9315,936.7935Q478.85257,935.7614,480.14777,939.42755L483.62854,949.27893L488.54694,947.54156L488.0833,946.2295Q487.9201,945.76764,487.42645,945.8415Q486.96796,945.9196,486.534,945.97235Q486.12012,946.0348,485.8755,946.0541Q485.63635,946.0885,485.5713,946.0946L482.87512,938.46387Q482.25378,936.7054,482.8996,935.35394Q483.45264,934.1969,484.73798,933.6854Q484.81915,933.653,484.90344,933.6233Q486.37872,933.1019,487.55988,933.74084Q488.66046,934.3409,489.32397,936.21875L492.8047,946.07L497.72296,944.3323L497.24902,942.9909Q497.08575,942.529,496.59235,942.6029Q496.32733,942.61255,494.69232,942.87177L491.99615,935.2411Q491.00616,932.43933,489.12256,931.3783Q488.17804,930.84,487.06805,930.82996Q485.8379,930.812,484.55627,931.2648Q484.4726,931.2944,484.38965,931.32745Q483.17444,931.811,482.14313,933.02295Q481.06583,934.292,480.98944,936.1632Q480.0211,934.84564,478.76172,934.31824Q477.46225,933.7715,475.88235,934.32965Q475.7888,934.3628,475.69736,934.3993Q473.42538,935.303,472.36884,938.287L472.35828,938.257L471.59152,936.7513Q471.2178,936.2629,470.6663,936.45776L469.07172,937.02155L466.88068,937.79535 Z M500.40076,925.6747Q498.94928,926.252,497.9662,927.18066Q496.8109,928.2761,496.245,929.6159Q495.71753,930.8752,495.67773,932.5656Q495.64587,934.136,496.20935,935.73065Q496.91504,937.7277,498.01398,939.0828Q499.14905,940.4924,500.45038,941.139Q501.87805,941.8584,503.3791,941.9315Q504.8802,942.0045,506.5345,941.42Q506.68707,941.36615,506.8449,941.30347Q507.45813,941.0593,508.151,940.6813Q508.75507,940.35034,509.65265,939.6647Q510.10144,939.3215,510.87457,938.3779Q511.49573,937.62177,511.73322,936.91754L510.615,936.17285Q510.34137,935.96783,509.9986,936.0889Q509.99023,936.0919,509.9818,936.09503Q509.76367,936.18195,509.47192,936.5433Q509.16864,936.91864,508.7365,937.35626Q508.10272,937.98254,507.6391,938.33075Q507.14313,938.6963,506.33392,939.0182Q506.14514,939.09326,505.9394,939.16614Q504.94073,939.5189,503.85522,939.48334Q502.85486,939.4512,501.9358,938.9378Q500.93073,938.3709,500.2807,937.5275Q499.5027,936.5117,499.00244,935.09576L499.00415,935.09515L509.25623,931.4728Q509.28125,931.4639,509.30536,931.4545Q509.64905,931.3177,509.72852,931.05457Q509.7898,930.8484,509.54767,930.1628Q508.99463,928.59814,508.0387,927.41034Q507.20532,926.38043,505.9137,925.7136Q504.7885,925.13885,503.4383,925.11304Q502.07263,925.0832,500.74963,925.5434L500.75134,925.54266Q500.76123,925.5391,500.7713,925.5356L500.7464,925.5443L500.74536,925.54474Q500.56995,925.6073,500.40076,925.6747 Z" />
            </g>
            <g class="svg-blue-400 svg-opacity-51 miter">
                <path d="M264.07346,926.07916L296.6006,914.5867L329.1277,903.0941Q342.5966,941.21356,356.0655,979.33295Q323.53854,990.8261,291.01154,1002.3193Q277.54245,964.1993,264.07346,926.07916" />
            </g>
            <g class="svg-gray-400 svg-opacity-100 miter">
                <path d="M310.79214,954.74786C320.0435,951.478,320.10007,941.03876,318.28268,933.12103C316.04407,923.3673,309.11847,917.87823,299.02496,921.4445C288.9334,925.0102,286.99136,933.6322,291.37732,942.6276C294.93842,949.9282,301.54013,958.01825,310.79214,954.74786 Z" />
            </g>
            <g class="svg-gray-400 svg-opacity-100 miter">
                <path d="M343.6138,967.9633C342.46915,965.0466,341.07516,962.2026,339.53278,959.4777C337.66437,956.17694,335.04547,951.29504,331.1605,950.0871C328.91357,949.38855,326.4573,949.7669,324.13916,949.6858C323.01093,949.6466,321.9869,949.5735,320.99838,949.42773C319.27658,953.5039,316.18054,956.4117,311.9114,957.9207C307.64365,959.4285,303.40842,959.1109,299.50772,957.02106C298.83038,957.75555,298.07944,958.45575,297.2264,959.195C295.4736,960.7144,293.32486,961.9631,292.016,963.91815C289.75223,967.2995,290.78162,972.7424,291.40146,976.4838C291.91324,979.57306,292.6152,982.66156,293.5574,985.6501C294.28732,987.9649,295.52985,987.8863,297.68723,987.90094C300.38852,987.9184,303.0888,987.6856,305.76495,987.3316C310.9331,986.64777,316.1664,985.67694,321.11493,983.96783C326.03885,982.1884,330.72055,979.6562,335.17114,976.94147C337.4755,975.5361,339.7227,974.0203,341.8131,972.3099C343.4834,970.94305,344.49915,970.2233,343.61282,967.9638 Z" />
            </g>
            <g class="svg-gray-300 svg-opacity-99 miter">
                <path d="M411.91205,1298.6678L538.3699,1253.9863L664.8273,1209.3054Q669.66113,1222.9863,674.49524,1236.6675Q548.03784,1281.3491,421.58054,1326.0314Q416.74634,1312.3497,411.91205,1298.6678" />
            </g>
            <g class="svg-blue-400 svg-opacity-100 miter">
                <path d="M417.41705,1271.442L525.8839,1233.1176L530.64404,1246.5897L422.1777,1284.9154L417.41705,1271.442 Z" />
            </g>
            <g class="svg-blue-400 svg-opacity-100 miter">
                <path d="M410.23105,1251.1041L494.24933,1221.4188L578.26697,1191.7327Q580.647,1198.4685,583.02734,1205.2053Q499.0097,1234.8915,414.99173,1264.5778Q412.61133,1257.841,410.23105,1251.1041 Z" />
            </g>
            <g class="svg-blue-400 svg-opacity-100 miter">
                <path d="M403.04538,1230.7673L468.0271,1207.8077L533.0084,1184.847Q535.3884,1191.5829,537.7689,1198.32Q472.78757,1221.2809,407.8061,1244.2411Q405.42578,1237.5042,403.04538,1230.7673 Z" />
            </g>
            <g class="svg-blue-400 svg-opacity-100 miter">
                <path d="M395.8598,1210.4307L478.27,1181.3121L560.6802,1152.1941Q563.0602,1158.9299,565.4408,1165.6667Q483.0307,1194.7855,400.62033,1223.9038Q398.23993,1217.167,395.8598,1210.4307 Z" />
            </g>
            <g class="svg-blue-400 svg-opacity-100 miter">
                <path d="M387.8978,1192.389L496.36475,1154.0651L501.12482,1167.537L392.65836,1205.8628L387.8978,1192.389 Z" />
            </g>
            <g class="svg-blue-400 svg-opacity-100 miter">
                <path d="M380.71185,1172.0516L464.73022,1142.3662L548.7477,1112.6796Q551.1278,1119.4156,553.5082,1126.1527Q469.49057,1155.839,385.4725,1185.525Q383.09207,1178.7882,380.71185,1172.0516 Z" />
            </g>
            <g class="svg-blue-400 svg-opacity-100 miter">
                <path d="M366.34045,1131.378L448.75073,1102.2588L531.16077,1073.1411Q533.54114,1079.8779,535.92126,1086.614Q453.51132,1115.7322,371.101,1144.8514Q368.72067,1138.1144,366.34045,1131.378 Z" />
            </g>
            <g class="svg-blue-400 svg-opacity-100 miter">
                <path d="M373.52597,1151.7145L438.50784,1128.7549L503.4889,1105.7944Q505.8692,1112.5308,508.24945,1119.2676Q443.26828,1142.2278,378.28677,1165.1881Q375.9063,1158.4513,373.52597,1151.7145 Z" />
            </g>
            <g class="svg-gray-600 svg-opacity-100 miter">
                <path d="M347.0456,1140.1378L352.36276,1138.2596L357.67984,1136.3815Q359.40076,1141.2518,361.12167,1146.1224Q355.80487,1148.0013,350.4878,1149.8798Q348.76675,1145.0092,347.0456,1140.1378 Z" />
            </g>
            <g class="svg-gray-600 svg-opacity-100 miter">
                <path d="M354.155,1160.2589L364.78912,1156.5021L368.23108,1166.2433L357.59714,1170.0011L354.155,1160.2589 Z" />
            </g>
            <g class="svg-gray-600 svg-opacity-100 miter">
                <path d="M361.2646,1180.3802L366.5819,1178.5021L371.8985,1176.6229Q373.61957,1181.4935,375.34033,1186.3639Q370.02347,1188.2426,364.70654,1190.1215Q362.98563,1185.2511,361.2646,1180.3802 Z" />
            </g>
            <g class="svg-gray-600 svg-opacity-100 miter">
                <path d="M368.37384,1200.5007L379.00797,1196.7441L382.44955,1206.4846L371.81592,1210.2424L368.37384,1200.5007 Z" />
            </g>
            <g class="svg-gray-600 svg-opacity-100 miter">
                <path d="M375.15387,1219.6897L380.47095,1217.811L385.788,1215.9326Q387.5089,1220.8032,389.22986,1225.6738Q383.91302,1227.5527,378.59598,1229.4314Q376.8749,1224.5605,375.15387,1219.6897 Z" />
            </g>
            <g class="svg-gray-600 svg-opacity-100 miter">
                <path d="M396.482,1280.0524L407.11627,1276.2955L410.55783,1286.036L399.9239,1289.7936L396.482,1280.0524 Z" />
            </g>
            <g class="svg-gray-600 svg-opacity-100 miter">
                <path d="M389.3726,1259.9315L394.6902,1258.0538L400.0066,1256.1742Q401.72772,1261.045,403.44855,1265.9154Q398.13162,1267.7941,392.81476,1269.6732Q391.09366,1264.8026,389.3726,1259.9315 Z" />
            </g>
            <g class="svg-gray-600 svg-opacity-100 miter">
                <path d="M382.26328,1239.8103L392.8973,1236.0535L396.33914,1245.7944L385.70523,1249.5521L382.26328,1239.8103 Z" />
            </g>
        </g>
        <g class="svg-white svg-opacity-100 miter">>
            <path d="M403.66544,858.8665L570.18994,858.8669L736.71436,858.8673Q736.71436,1087.8123,736.71423,1316.7561Q570.1898,1316.7563,403.66544,1316.7567Q403.66544,1087.8119,403.66544,858.8665" />
        </g>
        <g class="svg-gray-300 svg-opacity-78 miter">
            <path d="M667.1736,870.17633L726.0615,870.17694L726.0615,881.3734L667.1736,881.374L667.1736,870.17633" />
        </g>
        <g class="svg-gray-300 svg-opacity-78 miter">
            <path d="M685.9794,885.20667L726.0615,885.2069L726.0615,896.40375L685.9794,896.4042L685.9794,885.20667" />
        </g>
        <g class="svg-gray-300 svg-opacity-61 miter">
            <path d="M643.5685,1098.9515L725.6648,1098.9531L725.6648,1258.4359L643.5686,1258.4374L643.5685,1098.9515" />
        </g>
        <g class="svg-blue-300 svg-opacity-99 miter">
            <path d="M657.3268,1103.5582L684.6167,1103.5588L711.9066,1103.5591Q711.9066,1111.8143,711.9066,1120.0697Q684.6167,1120.07,657.3268,1120.07Q657.3268,1111.8141,657.3268,1103.5582" />
        </g>
        <g class="svg-blue-300 svg-opacity-44 miter">
            <path d="M427.83072,995.0151L559.73364,995.01544L691.6365,995.0159Q691.6365,1036.8418,691.6365,1078.6677Q559.73364,1078.6676,427.83078,1078.6677Q427.83078,1036.8416,427.83072,995.0151" />
        </g>
        <g class="svg-blue-300 svg-opacity-99 miter">
            <path d="M515.5408,937.5591L591.2634,937.5594L666.9862,937.5597Q666.9861,955.61646,666.9861,973.6734Q591.2633,973.6734,515.5408,973.67365Q515.5408,955.6164,515.5408,937.5591" />
        </g>
        <g class="svg-gray-800 svg-opacity-100 miter">
            <path d="M540.0741,945.20685L543.20386,945.20746Q545.9226,945.2069,547.25037,946.2502Q548.60974,947.325,548.60974,949.3481Q548.60974,950.42303,548.2621,951.2291Q547.9142,952.0195,547.18713,952.6517Q546.3967,953.3314,545.4485,953.63165Q544.60583,953.8949,543.4783,953.93896Q543.26746,953.94714,543.04663,953.9479L543.0459,953.9479L540.0741,953.9478L540.0741,945.20685 Z M563.3198,951.39246Q563.45496,951.38715,563.59424,951.38715L563.5626,951.41876Q564.5742,951.41876,565.34875,951.7507Q566.1234,952.0827,566.6765,952.6833Q567.1034,953.15753,567.45105,954.1532Q567.75146,955.0226,567.75146,955.9552L558.83655,955.9557Q559.1211,953.8529,560.33813,952.58844Q561.4155,951.46674,563.3198,951.39246 Z M640.9138,951.39246Q641.0491,951.3872,641.18835,951.3872L641.15674,951.41876Q642.1682,951.41876,642.94275,951.7506Q643.7173,952.08264,644.2704,952.68335Q644.69727,953.1575,645.0449,954.1533Q645.34534,955.0227,645.34534,955.9553L636.43054,955.9557Q636.71484,953.853,637.932,952.58844Q639.0095,951.4668,640.9138,951.39246 Z M534.6367,942.6936L534.6367,944.11615Q534.6367,944.5904,535.11084,944.701Q535.3954,944.7643,536.9918,945.08044L536.9918,963.5264L535.11084,963.92145Q534.6367,964.03217,534.6367,964.5064L534.6367,965.8975L536.9602,965.8973L540.1057,965.89777L542.4293,965.89764L542.4293,964.50653Q542.4293,964.3011,542.27136,964.12726Q542.129,963.9693,541.9076,963.92145Q541.6548,963.85834,540.1057,963.5264L540.1057,956.22394L542.1765,956.2245Q542.8562,956.224,543.1406,956.4137Q543.47266,956.6349,543.72546,956.9668L549.7477,965.24945Q550.1272,965.92914,550.9807,965.92914L552.0082,965.9295L553.7626,965.92914L554.3474,965.92914L554.3474,964.50653Q554.3474,964.0324,553.85754,963.9216L553.85864,963.9216L553.88904,963.9222Q553.73096,963.8743,552.0714,963.6055L547.06067,956.72974Q546.6339,956.1133,546.01746,955.7655Q547.18713,955.5126,548.42004,954.833Q549.46326,954.2639,550.2062,953.36304Q550.949,952.462,551.32825,951.41876Q551.72363,950.3123,551.72363,949.15845Q551.72363,947.67267,551.2335,946.47144Q550.7593,945.31757,549.68445,944.43243Q548.6255,943.56305,547.02905,943.1362Q545.35364,942.69366,543.20386,942.69366L536.9602,942.69403L534.6367,942.6936 Z M563.1671,949.29254Q561.6062,949.3535,560.36975,949.90137Q558.9155,950.5494,557.93555,951.62427Q557.0189,952.636,556.4181,954.21655Q555.865,955.6865,555.865,957.3777Q555.865,959.496,556.4498,961.13983Q557.0503,962.84686,558.062,963.8901Q559.16846,965.044,560.55945,965.613Q561.95044,966.18207,563.70496,966.18207Q563.8667,966.18207,564.0364,966.1755Q564.6958,966.1497,565.4751,966.02386Q566.155,965.91327,567.22974,965.5656Q567.7671,965.39154,568.81055,964.75934Q569.6482,964.2536,570.10657,963.66876L569.3004,962.59393Q569.1107,962.3094,568.7472,962.3094Q568.7383,962.3094,568.7291,962.30975Q568.49475,962.31903,568.0991,962.5623Q567.6881,962.81525,567.135,963.08405Q566.32886,963.4632,565.7755,963.63727Q565.18616,963.8166,564.31616,963.8505Q564.11304,963.85846,563.89453,963.85846Q562.8356,963.8586,561.824,963.4632Q560.89136,963.0997,560.1959,962.3094Q559.43713,961.4401,559.1052,960.4285Q558.7101,959.2114,558.7101,957.7097L558.71106,957.7097L569.58496,957.7097Q569.6117,957.7097,569.63745,957.70874Q570.0072,957.69434,570.1698,957.47266Q570.29614,957.2987,570.29614,956.57166Q570.29614,954.912,569.7904,953.47363Q569.3479,952.2249,568.35205,951.16595Q567.48267,950.24915,566.21814,949.77496Q564.9386,949.2911,563.5355,949.285L563.5366,949.285Q563.5497,949.2849,563.5626,949.2849L563.5271,949.28534L563.52515,949.285Q563.3441,949.28577,563.1671,949.29254 Z M578.1831,949.2938Q575.54236,949.3967,574.04236,950.7075Q572.4933,952.051,572.4933,954.01086Q572.4933,955.93933,573.85266,957.06165Q574.5956,957.6465,575.3069,957.96265Q575.9392,958.2313,578.3258,959.00586Q578.9424,959.1481,579.6852,959.5116Q580.1437,959.73303,580.6494,960.30206Q581.04456,960.74457,581.04456,961.6613Q581.04456,962.54645,580.19116,963.30524Q579.3125,964.05206,577.90466,964.107Q577.7931,964.11127,577.67773,964.11127Q575.62305,964.11127,574.34265,963.4632Q574.2953,962.9416,574.23206,962.40424Q574.1846,961.86676,574.1531,961.64557Q574.1372,961.4401,574.1372,961.39264Q574.04236,961.01324,573.6631,961.01324L572.4933,961.01385L572.4933,965.28094Q575.10144,966.1503,577.8043,966.1503Q577.9734,966.1503,578.1389,966.14374Q580.51,966.05133,582.13525,964.633Q583.7317,963.2421,583.7317,960.8868Q583.7317,959.0691,582.40405,958.0259Q581.61365,957.39355,581.04456,957.1881L579.47974,956.60315Q579.17944,956.4927,578.4523,956.27136Q577.7411,956.0659,577.4723,955.9867Q576.25525,955.60754,575.6072,954.8646Q575.2119,954.4695,575.2119,953.63165Q575.2119,952.8255,576.0814,952.14594Q576.9497,951.46906,578.1465,951.42224Q578.2352,951.41876,578.3258,951.41876L578.35754,951.41925Q579.29016,951.41876,580.8707,951.7823Q580.9182,952.3514,580.98145,952.90454Q581.0288,953.442,581.06055,953.66327Q581.0762,953.8845,581.0762,953.91614Q581.17114,954.37463,581.6295,954.37463L582.8782,954.375L582.8782,951.2923L582.8782,950.17004Q580.2916,949.29236,578.6378,949.285L578.63904,949.2849Q578.6406,949.2849,578.6421,949.2849L578.63855,949.28534L578.63855,949.2849Q578.4066,949.285,578.1831,949.2938 Z M584.854,949.5535L584.854,950.913Q584.854,951.43463,585.35974,951.52936Q585.6759,951.6401,587.1775,951.9087L587.1775,960.00165Q587.1775,962.752,588.6,964.50653Q590.0542,966.21356,592.6781,966.21356Q592.8229,966.21356,592.96606,966.20807Q595.9147,966.09283,598.1156,963.6055L598.35266,965.3442Q598.54236,965.96075,599.1271,965.96075L603.1737,965.96136L603.1737,964.56976Q603.1737,964.0798,602.6836,963.98505Q602.3992,963.8901,600.8342,963.60565L600.83435,949.5537L597.9575,949.5535L595.63403,949.5535L595.63403,950.9445Q595.63403,951.4662,596.1083,951.56104Q597.6731,951.8455,597.9574,951.9404L597.9574,961.6613Q596.0177,963.8284,593.7291,963.9178Q593.63074,963.9216,593.5316,963.9216L593.5316,963.8901Q591.8087,963.8901,590.93933,962.8785Q590.08594,961.8826,590.08594,959.9701L590.08606,949.5535L584.854,949.55414 Z M605.1179,949.5537L605.1179,950.91315Q605.1179,951.4347,605.5604,951.52954Q605.81335,951.6085,607.4413,951.9088L607.4413,963.60565L605.5603,963.9534Q605.1178,964.0484,605.1178,964.56976L605.1178,965.92914L612.6575,965.92914L612.6575,964.56976Q612.6575,964.04816,612.1676,963.9534Q612.07275,963.9534,611.20337,963.76373L610.3181,963.60565L610.3181,953.7582Q611.91736,951.7022,613.83936,951.62726Q613.9121,951.6243,613.98535,951.6243Q617.0834,951.6243,617.08325,955.5126L617.08325,965.96075L622.29944,965.96136L622.29944,964.56976Q622.29944,964.0798,621.8093,963.98505Q621.35095,963.90594,620.9243,963.8111Q620.5133,963.7321,620.2761,963.66876Q620.0392,963.6214,619.9758,963.60565L619.9758,955.5126Q619.9758,953.6476,621.0349,952.5885Q621.9419,951.6817,623.3242,951.62775Q623.4115,951.6243,623.501,951.6243Q625.06555,951.6243,625.96643,952.6202Q626.8042,953.5527,626.8042,955.5443L626.8042,965.9924L632.0204,965.9924L632.0204,964.56976Q632.0204,964.0798,631.5305,963.98505Q631.27747,963.90594,629.6494,963.60565L629.6494,955.5126Q629.6494,952.5411,628.2269,950.9131Q627.51575,950.09094,626.4724,949.71173Q625.3186,949.285,623.95935,949.285Q623.8706,949.285,623.7814,949.2886Q622.4745,949.3395,621.09827,950.1387Q619.6598,950.97626,618.96436,952.71515Q618.49023,951.1502,617.4785,950.2334Q616.4354,949.285,614.7599,949.285Q614.66064,949.285,614.56213,949.28894Q612.119,949.38416,610.12866,951.84564L610.12866,951.81396L609.90735,950.1387Q609.7178,949.5537,609.1328,949.5537L607.4414,949.5542L605.1179,949.5537 Z M640.761,949.29254Q639.2001,949.35345,637.96375,949.9015Q636.5095,950.54944,635.52954,951.62427Q634.6128,952.6359,634.0121,954.21655Q633.45886,955.6865,633.45886,957.3778Q633.45886,959.496,634.0437,961.13983Q634.6443,962.84686,635.656,963.8901Q636.76245,965.044,638.1533,965.6131Q639.5443,966.18207,641.2988,966.18207Q641.4608,966.18207,641.6304,966.1755Q642.2899,966.1497,643.0691,966.024Q643.7489,965.91327,644.8237,965.56573Q645.3612,965.39166,646.4044,964.7596Q647.24194,964.2536,647.70056,963.66876L646.8943,962.59406Q646.7046,962.30963,646.3412,962.30963Q646.3323,962.30963,646.3231,962.30975Q646.0885,962.31903,645.69324,962.56244Q645.2821,962.81537,644.7289,963.08405Q643.9227,963.4633,643.3695,963.63727Q642.78,963.8167,641.9099,963.8505Q641.7069,963.8586,641.4885,963.8586Q640.42944,963.8586,639.41785,963.4633Q638.48535,963.0998,637.7899,962.30963Q637.031,961.44025,636.6991,960.4285Q636.30396,959.2114,636.30396,957.7097L636.3058,957.7097L647.17896,957.7097Q647.20557,957.7097,647.2313,957.70886Q647.6011,957.69434,647.7637,957.47266Q647.89014,957.2988,647.89014,956.57166Q647.89014,954.9121,647.3844,953.4736Q646.9418,952.225,645.94604,951.16595Q645.07666,950.2491,643.81213,949.775Q642.5344,949.2919,641.13367,949.2851L641.1356,949.2849Q641.1461,949.2849,641.15674,949.2849L641.13025,949.2849L641.1293,949.2849Q640.943,949.28546,640.761,949.29254 Z" />
        </g>
        <g class="svg-blue-400 svg-opacity-51 miter">
            <path d="M417.79932,870.94183L452.29706,870.942L486.7948,870.94226Q486.7948,911.3714,486.7948,951.8006Q452.29706,951.8007,417.79932,951.80096Q417.79932,911.3714,417.79932,870.94183" />
        </g>
        <g class="svg-gray-400 svg-opacity-100 miter">
            <path d="M452.2982,913.5371C462.11047,913.5361,465.6416,903.712,466.56586,895.64105C467.70462,885.69867,463.00327,878.21594,452.2982,878.21594C441.59525,878.21594,436.89175,885.69824,438.03046,895.64105C438.9558,903.71106,442.4853,913.5383,452.2982,913.5371 Z" />
        </g>
        <g class="svg-gray-400 svg-opacity-100 miter">
            <path d="M478.84216,936.9321C478.73468,933.80054,478.36777,930.65454,477.8213,927.5715C477.1592,923.8369,476.31638,918.3614,473.0558,915.92816C471.1699,914.52094,468.7279,914.05927,466.56918,913.21063C465.5185,912.7978,464.5773,912.3877,463.69382,911.921C460.7124,915.1907,456.8245,916.90106,452.29654,916.90137C447.77026,916.90137,443.88278,915.1909,440.90118,911.921C440.0178,912.38794,439.0765,912.7978,438.02588,913.21063C435.8671,914.05927,433.42508,914.52094,431.53967,915.92816C428.27878,918.3621,427.436,923.83716,426.77396,927.5715C426.2274,930.65454,425.86026,933.80054,425.7531,936.9321C425.6701,939.358,426.86786,939.6979,428.89713,940.4304C431.43826,941.3468,434.06183,942.02686,436.70297,942.5848C441.80374,943.6616,447.06155,944.48975,452.29672,944.5268C457.53217,944.48956,462.79,943.6616,467.8908,942.5848C470.5317,942.02734,473.15552,941.3468,475.69635,940.4304C477.7266,939.69806,478.9241,939.358,478.84113,936.9321 Z" />
        </g>
        <g class="svg-gray-300 svg-opacity-99 miter">
            <path d="M433.06503,1271.4982L567.1842,1271.4988L701.3032,1271.4994Q701.3032,1286.0095,701.3032,1300.5195Q567.1842,1300.5195,433.06503,1300.5197Q433.06503,1286.0092,433.06503,1271.4982" />
        </g>
        <g class="svg-blue-400 svg-opacity-100 miter">
            <path d="M447.3257,1247.6617L562.364,1247.6626L562.364,1261.9507L447.3257,1261.9515L447.3257,1247.6617 Z" />
        </g>
        <g class="svg-blue-400 svg-opacity-100 miter">
            <path d="M447.3257,1226.0919L536.4341,1226.0929L625.542,1226.093Q625.542,1233.237,625.542,1240.3821Q536.4341,1240.3817,447.3257,1240.3817Q447.3257,1233.2367,447.3257,1226.0919 Z" />
        </g>
        <g class="svg-blue-400 svg-opacity-100 miter">
            <path d="M447.32584,1204.5228L516.2444,1204.5233L585.16296,1204.5232Q585.16296,1211.667,585.16296,1218.8123Q516.2444,1218.8126,447.3257,1218.8131Q447.32584,1211.6678,447.32584,1204.5228 Z" />
        </g>
        <g class="svg-blue-400 svg-opacity-100 miter">
            <path d="M447.32587,1182.954L534.7291,1182.9535L622.1322,1182.9543Q622.1322,1190.0981,622.1322,1197.2432Q534.7291,1197.2435,447.32587,1197.2435Q447.32587,1190.0985,447.32587,1182.954 Z" />
        </g>
        <g class="svg-blue-400 svg-opacity-100 miter">
            <path d="M445.82913,1163.2906L560.86743,1163.2915L560.86743,1177.5798L445.82913,1177.5804L445.82913,1163.2906 Z" />
        </g>
        <g class="svg-blue-400 svg-opacity-100 miter">
            <path d="M445.82913,1141.721L534.9376,1141.7217L624.04565,1141.7217Q624.04565,1148.8662,624.04565,1156.0112Q534.9376,1156.0109,445.82913,1156.0109Q445.82913,1148.8655,445.82913,1141.721 Z" />
        </g>
        <g class="svg-blue-400 svg-opacity-100 miter">
            <path d="M445.82913,1098.583L533.23267,1098.582L620.6356,1098.5826Q620.6356,1105.7277,620.6356,1112.872Q533.23267,1112.8718,445.82913,1112.8726Q445.82913,1105.7275,445.82913,1098.583 Z" />
        </g>
        <g class="svg-blue-400 svg-opacity-100 miter">
            <path d="M445.82913,1120.1514L514.7477,1120.1523L583.66614,1120.1517Q583.66614,1127.2966,583.66614,1134.4414Q514.7477,1134.4414,445.82913,1134.4417Q445.82913,1127.2964,445.82913,1120.1514 Z" />
        </g>
        <g class="svg-gray-600 svg-opacity-100 miter">
            <path d="M424.71817,1100.4143L430.3574,1100.4148L435.99643,1100.4153Q435.99643,1105.5808,435.99643,1110.7463Q430.3574,1110.7468,424.71817,1110.7468Q424.71817,1105.5808,424.71817,1100.4143 Z" />
        </g>
        <g class="svg-gray-600 svg-opacity-100 miter">
            <path d="M424.7181,1121.7546L435.9964,1121.7551L435.9964,1132.0864L424.7181,1132.0869L424.7181,1121.7546 Z" />
        </g>
        <g class="svg-gray-600 svg-opacity-100 miter">
            <path d="M424.71817,1143.095L430.3574,1143.0955L435.9964,1143.095Q435.9964,1148.2607,435.9964,1153.4264Q430.3574,1153.4264,424.71817,1153.4266Q424.71817,1148.2607,424.71817,1143.095 Z" />
        </g>
        <g class="svg-gray-600 svg-opacity-100 miter">
            <path d="M424.71817,1164.4347L435.9964,1164.4352L435.9963,1174.766L424.71817,1174.7665L424.71817,1164.4347 Z" />
        </g>
        <g class="svg-gray-600 svg-opacity-100 miter">
            <path d="M424.71817,1184.786L430.35742,1184.786L435.9964,1184.7865Q435.9964,1189.952,435.9964,1195.1178Q430.35742,1195.118,424.71817,1195.118Q424.71817,1189.952,424.71817,1184.786 Z" />
        </g>
        <g class="svg-gray-600 svg-opacity-100 miter">
            <path d="M424.71814,1248.8055L435.99637,1248.8065L435.99637,1259.1368L424.71808,1259.1371L424.71814,1248.8055 Z" />
        </g>
        <g class="svg-gray-600 svg-opacity-100 miter">
            <path d="M424.71808,1227.4657L430.3574,1227.4669L435.99637,1227.4657Q435.99637,1232.632,435.99637,1237.7972Q430.3574,1237.7972,424.71814,1237.7977Q424.71808,1232.632,424.71808,1227.4657 Z" />
        </g>
        <g class="svg-gray-600 svg-opacity-100 miter">
            <path d="M424.71814,1206.1259L435.99637,1206.1261L435.99637,1216.4574L424.71808,1216.4576L424.71814,1206.1259 Z" />
        </g>
        <g class="svg-orange-200 svg-opacity-100 miter">
            <path d="M830.2511,1159.6357C833.4263,1161.1133,835.26184,1164.1034,835.907,1168.972C836.0653,1170.206,836.2848,1171.5004,836.4109,1171.8613C836.53735,1172.222,836.6311,1172.8901,836.6428,1173.3502C836.65454,1173.8104,836.88074,1174.9373,837.1454,1175.8536C838.19495,1179.4465,838.50964,1180.8785,838.5713,1182.5052C838.6134,1183.4535,838.7374,1184.8745,838.8518,1185.691C838.9431,1186.5037,839.0066,1187.3347,838.97253,1187.5214C838.9343,1187.7312,839.0404,1188.3293,839.2024,1188.8896C839.364,1189.4498,839.47974,1190.0016,839.45386,1190.1417C839.428,1190.2811,839.5287,1190.7819,839.70337,1191.2723C839.85474,1191.7582,839.98,1192.6495,839.9426,1193.245C839.9066,1194.8779,840.1748,1197.8679,840.47144,1199.0074C840.7189,1200.0176,841.61194,1203.4128,842.27356,1205.9698C842.4712,1206.7292,842.73,1207.5485,842.8584,1207.7654C843.557,1209.0748,844.0945,1213.8752,843.8812,1216.9941C843.80896,1218.0413,843.8082,1219.2222,843.8838,1219.598C843.9547,1219.997,843.93396,1220.7645,843.8308,1221.3243C843.5642,1222.7695,843.4712,1229.551,843.71436,1230.5842C843.81934,1231.0614,843.94653,1232.0732,844.0039,1232.8073C844.0613,1233.541,844.15735,1234.981,844.2102,1236.0033C844.28613,1237.0297,844.4044,1238.0885,844.5012,1238.347C844.6969,1238.986,844.54846,1243.3219,844.2262,1245.9868C843.9247,1248.5345,843.8987,1250.507,844.1013,1251.8943C844.1891,1252.4647,844.2019,1253.3109,844.1157,1253.7776C844.02966,1254.2435,844.01697,1255.23,844.0742,1255.9634C844.1316,1256.6978,844.0936,1258.4741,843.9525,1259.8948C843.8342,1261.3192,843.7698,1262.5851,843.83716,1262.742C843.91504,1262.9735,843.8854,1263.788,843.4573,1268.9885C843.16785,1272.9128,843.60913,1274.4409,845.04504,1274.3677C845.63025,1274.3313,847.54614,1273.0933,847.615,1272.7196C847.6361,1272.6034,848.0299,1272.1699,848.489,1271.7722C848.94775,1271.3748,849.6345,1270.6575,850.0322,1270.2006C851.2422,1268.7361,853.02515,1266.3889,853.2744,1265.9526C853.41064,1265.7365,853.64233,1265.3937,853.7932,1265.2286C854.7543,1264.2004,856.61914,1261.145,857.10645,1259.8127C857.307,1259.247,857.6885,1258.3533,857.9829,1257.8046C858.7733,1256.2628,860.82886,1250.735,861.0781,1249.3829C861.2262,1248.7108,861.56555,1247.7854,861.8469,1247.3066C863.46655,1244.6641,863.97095,1243.2385,864.4092,1239.9441C865.4673,1232.3767,865.7289,1229.3867,865.4939,1228.3073C865.364,1227.7046,865.29126,1226.2688,865.31067,1225.1156C865.3596,1223.4125,865.47595,1222.7831,865.95557,1221.6178C866.6814,1219.7751,869.1001,1216.4603,870.7344,1215.0497C872.85535,1213.2227,875.60474,1212.6932,877.73535,1213.6887C878.77563,1214.1936,880.4392,1216.2844,880.3191,1216.9371C880.28015,1217.1469,880.38904,1217.8661,880.53357,1218.5194C880.7854,1219.5061,880.74304,1220.3905,880.3218,1223.5914C880.02405,1225.7303,879.82275,1228.128,879.89087,1228.9365C879.9354,1229.74,879.8816,1231.08,879.72644,1231.9197C879.5719,1232.759,879.5154,1234.2434,879.5957,1235.2461C879.676,1236.2496,879.662,1237.5007,879.5676,1238.0132C879.49194,1238.5541,879.4219,1239.457,879.4309,1240.0615C879.4509,1240.7401,879.16516,1242.1583,878.6835,1243.8533C878.0442,1246.1465,877.92126,1246.9431,877.8694,1249.055C877.84106,1251.1714,877.4706,1253.4418,875.56384,1263.9146C872.9055,1278.4675,873.53503,1276.7515,869.46436,1280.9192C866.5751,1283.9064,866.3281,1284.198,865.1051,1285.7325C864.5394,1286.4476,863.49927,1287.7745,862.7501,1288.6975C862.025,1289.6245,861.2572,1290.5194,861.0321,1290.6951C860.81116,1290.8473,860.6199,1291.101,860.598,1291.2175C860.5724,1291.3578,860.2068,1291.7721,859.7986,1292.155C859.16113,1292.7369,856.91565,1295.2395,855.0696,1297.4066C854.48474,1298.0946,851.66797,1301.8661,850.489,1303.5535C849.506,1304.9631,848.6006,1306.6041,848.4934,1307.1876C848.4458,1307.4437,848.1793,1307.9731,847.90674,1308.4053C847.6388,1308.8138,846.9734,1310.3303,846.44214,1311.7755C845.5646,1314.0483,845.4385,1314.6035,845.44775,1315.8591C845.46484,1316.6821,845.46436,1317.863,845.4607,1318.5376C845.4612,1319.1885,845.5393,1320.0706,845.65283,1320.5017C845.74744,1320.9043,845.86646,1321.6981,845.9116,1322.2365C845.9568,1322.7754,846.1195,1323.9866,846.3013,1324.9602C846.4878,1325.9109,846.6334,1327.2152,846.6334,1327.8661C846.671,1329.1025,847.1638,1332.1829,847.41736,1332.6394C847.5082,1332.8007,847.75073,1334.099,847.949,1335.5104C848.46594,1339.246,848.6561,1340.1725,848.89856,1340.8197C849.0337,1341.1335,849.1315,1341.7789,849.14294,1342.2386C849.15466,1342.6992,849.421,1344.0016,849.71704,1345.1417C850.0322,1346.3087,850.2435,1347.3842,850.2136,1347.5471C850.1835,1347.7104,850.30347,1348.2386,850.4824,1348.7057C850.6616,1349.173,850.7897,1349.654,850.76794,1349.7711C850.6865,1350.214,852.666,1357.5216,852.9347,1357.7642C853.01526,1357.8511,853.105,1358.2777,853.0978,1358.7101C853.1444,1359.635,853.7257,1362.105,854.0552,1362.6716C854.18384,1362.8882,854.31665,1363.3469,854.3495,1363.6907C854.3828,1364.034,854.58264,1364.6494,854.7511,1365.0422C854.9431,1365.4392,855.6227,1367.6376,856.266,1369.9017C858.0049,1376.0325,858.58276,1377.344,862.2699,1383.4962C866.8784,1391.1926,868.5863,1393.1708,872.07007,1395.0665C873.10144,1395.6182,874.4144,1396.3424,875.0242,1396.6959C875.615,1397.0219,876.9512,1397.7507,877.98303,1398.3022C879.00977,1398.8771,879.98157,1399.4902,880.16125,1399.6924C880.3136,1399.9131,880.5674,1400.1045,880.68384,1400.1261C880.80066,1400.148,881.71985,1401.3057,882.72205,1402.6716C883.7196,1404.0608,884.59644,1405.1869,884.6898,1405.2037C884.7599,1405.2169,885.3279,1406.1897,885.95483,1407.3657C886.563,1408.5144,887.1498,1409.5144,887.23425,1409.5784C887.3192,1409.6418,887.93555,1410.7441,888.5831,1412.0692C889.2357,1413.3701,890.2023,1415.188,890.7363,1416.082C891.2709,1416.9763,891.77966,1418.0104,891.90564,1418.3711C892.31006,1419.5782,895.26465,1425.258,896.3635,1426.8829C896.81555,1427.5691,897.4828,1428.6562,897.8419,1429.3257C898.9376,1431.3594,901.34924,1448.592,898.7572,1448.3556C896.1426,1448.1405,894.6603,1446.9058,894.5447,1446.9319C884.9169,1449.0991,884.88196,1439.4718,855.1312,1433.9873C826.2207,1428.6571,802.5729,1424.2013,802.5901,1424.1075C802.61145,1423.9911,802.4171,1423.7386,802.13965,1423.5428C801.89014,1423.3278,800.8169,1422.4791,799.7908,1421.639C798.7411,1420.7948,797.2112,1419.5482,796.364,1418.9097C795.5216,1418.2485,794.7346,1417.5488,794.6251,1417.3596C794.515,1417.1709,794.3544,1416.9968,794.2377,1416.9752C794.07446,1416.9452,793.01465,1416.0265,791.76416,1414.8314C789.6315,1412.7992,788.52734,1411.7277,788.2761,1411.3918C787.8258,1410.8267,784.5747,1408.3229,783.58997,1407.78C783.1068,1407.5222,782.4779,1407.1406,782.1863,1406.894C781.87085,1406.6433,781.5001,1406.43,781.3834,1406.4084C781.1271,1406.3617,777.58777,1403.8531,776.58484,1403.0175C776.2927,1402.7706,775.4503,1402.1089,774.6885,1401.5347C773.9263,1400.9602,772.92773,1400.1008,772.4557,1399.6526C771.9883,1399.1804,771.30054,1398.5957,770.896,1398.304C770.51086,1398.0399,769.7809,1397.4237,769.2667,1396.9429C768.75256,1396.4622,767.8198,1395.6392,767.1655,1395.1333C766.5161,1394.6033,765.5785,1393.8038,765.08777,1393.3275C764.35583,1392.5901,762.93396,1391.4119,760.9337,1389.8378C759.7527,1388.9211,754.29956,1385.0226,754.1365,1384.9927C754.02,1384.9707,753.8357,1384.7922,753.7301,1384.58C753.60156,1384.3638,753.24365,1384.0808,752.9346,1383.9272C752.6212,1383.797,751.2068,1382.8372,749.7827,1381.8036C748.36206,1380.7458,746.97144,1379.7899,746.7086,1379.6449C746.4227,1379.4961,745.77295,1378.9667,745.2634,1378.463C744.75745,1377.9359,744.14856,1377.3171,743.90283,1377.0791C743.0443,1376.2457,741.845,1375.0365,740.834,1373.9823C740.2627,1373.419,739.3087,1372.4471,738.6952,1371.852C738.0775,1371.2803,737.19946,1370.4193,736.7512,1369.975C736.30237,1369.5305,735.60425,1368.8712,735.20886,1368.5333C733.45667,1367.0531,730.03076,1364.0592,729.18665,1363.277C728.6725,1362.7963,727.932,1362.1049,727.53613,1361.7671C726.8291,1361.1544,725.09705,1359.4366,724.48145,1358.7208C724.3251,1358.5233,723.50684,1357.601,722.697,1356.6318C721.88306,1355.6866,720.942,1354.6451,720.61597,1354.32C719.2428,1353.0057,718.93604,1352.7081,718.39453,1352.2466C718.0792,1351.9957,717.5228,1351.4833,717.13574,1351.0988C716.7677,1350.7416,715.72205,1349.8734,714.8142,1349.1759C713.7179,1348.323,712.74915,1347.301,711.88916,1346.0818C710.2728,1343.7347,710.0115,1342.1436,710.5206,1337.6808C710.73254,1336.0084,710.8065,1334.4305,710.73706,1334.153C710.64026,1333.8942,710.64026,1332.9778,710.6975,1332.1447C710.84644,1330.2917,710.59314,1327.0873,710.24475,1326.4923C710.12036,1326.2527,709.96533,1325.5247,709.895,1324.8608C709.4575,1319.9103,709.19775,1318.4401,708.5325,1316.5575C707.70056,1314.1381,706.17236,1308.6973,705.8523,1306.9025C704.8898,1301.663,705.0231,1300.0237,706.4448,1298.719C707.3395,1297.9197,709.10315,1297.377,710.17554,1297.5746C710.9912,1297.7247,712.8251,1297.1952,713.16125,1296.6788C713.2892,1296.5092,713.8154,1294.4368,714.34717,1292.0758C715.3845,1287.4933,716.8944,1282.4441,717.84924,1280.4022C718.16895,1279.7139,718.4851,1278.7842,718.5625,1278.3644C718.8374,1276.8718,720.5237,1274.9167,722.9093,1273.3553C724.1195,1272.5421,725.2263,1271.9022,725.3425,1271.924C725.4823,1271.9496,726.0597,1271.6945,726.6736,1271.3737C727.25964,1271.072,728.0304,1270.6832,728.3445,1270.5488C728.6587,1270.4136,729.9153,1269.874,731.121,1269.3484C734.83997,1267.7441,735.61694,1267.4534,736.7837,1267.1381C737.26135,1267.0338,738.60474,1266.6785,739.7251,1266.3547C740.8644,1266.0583,741.8978,1265.8151,742.0377,1265.8408C742.2943,1265.8883,745.61487,1265.0056,747.92395,1264.2501C748.692,1264.0057,750.65076,1263.4507,752.24854,1263.022C753.8506,1262.5701,755.60535,1262.0739,756.11475,1261.9269C757.34607,1261.5269,759.0475,1261.8407,760.7733,1262.8098C762.3069,1263.6469,764.3367,1265.0581,764.7915,1265.5997C765.1278,1265.9991,768.95667,1268.8988,771.4524,1270.6608C772.3922,1271.3163,773.3092,1271.9677,773.47424,1272.1185C773.6393,1272.2693,774.40137,1272.8439,775.16736,1273.3947C775.93384,1273.9459,776.7805,1274.5842,777.07666,1274.8074C777.3689,1275.0538,778.249,1275.771,779.0679,1276.4281C779.8683,1277.0579,780.9094,1277.9486,781.3578,1278.393C782.98645,1280.0194,784.36255,1280.9243,785.5242,1281.1626C786.93787,1281.4712,787.51514,1281.216,789.8992,1279.2686C791.52026,1277.9283,792.15454,1277.1053,793.27563,1274.6841C793.87036,1273.4198,794.56165,1268.3639,794.28174,1267.3961C794.145,1266.9612,793.76355,1265.1069,793.4286,1263.2612C793.07056,1261.411,792.5847,1259.0793,792.3279,1258.1165C792.0759,1257.1295,791.83716,1256.0731,791.79956,1255.7524C791.7621,1255.4323,791.45044,1254.5068,791.1172,1253.6981C790.2637,1251.6603,790.23413,1251.5587,789.3198,1248.2802C788.22437,1244.4138,787.99927,1243.6733,787.63416,1242.9067C787.42773,1242.459,787.1516,1240.8167,786.89453,1238.5515C786.803,1237.7391,786.70984,1236.8057,786.65356,1236.4579C786.5309,1235.4226,785.21594,1231.1786,784.7622,1230.3716C784.52747,1229.9426,784.09534,1229.0189,783.83386,1228.3442C783.55334,1227.6417,783.1572,1226.6523,782.92126,1226.1025C781.8943,1223.6956,781.4031,1222.5686,781.25964,1222.3005C781.1644,1222.1626,781.0,1221.7463,780.8971,1221.39C780.7897,1221.0569,780.40564,1220.2628,780.03357,1219.6641C779.3751,1218.5299,778.6218,1216.993,778.0127,1215.4583C777.1426,1213.2489,776.6294,1212.2379,775.8524,1210.9615C774.52344,1208.8849,772.96204,1205.8484,771.77686,1203.1226C770.6488,1200.4796,769.58276,1198.5475,767.5969,1195.4574C766.92505,1194.3934,765.9221,1192.6414,765.3522,1191.5479C761.6676,1184.3351,760.1111,1181.6619,759.55115,1181.5586C759.24866,1181.5027,757.59827,1178.1611,757.32117,1177.0488C757.1488,1176.4146,756.8572,1175.252,756.6638,1174.4688C756.47046,1173.686,756.3325,1172.8649,756.3672,1172.6782C756.40137,1172.4918,756.3251,1171.7302,756.19714,1170.9838C755.6638,1167.9922,756.47974,1163.8278,757.99084,1161.6471C760.2803,1158.3807,765.5397,1157.4456,768.26306,1159.8042C769.3656,1160.7546,771.12415,1162.9834,771.7383,1164.23C772.00195,1164.7605,772.93176,1166.2578,773.77856,1167.547C774.62146,1168.8595,775.7495,1170.5863,776.27795,1171.3829C776.82495,1172.2068,777.7422,1173.5092,778.3533,1174.2488C778.95984,1175.0114,779.9021,1176.4386,780.4193,1177.426C780.9595,1178.4175,782.07495,1180.2142,782.91174,1181.4297C783.7296,1182.6167,784.8491,1184.39,785.3705,1185.3538C786.2593,1186.9403,787.68933,1189.2529,788.902,1191.0437C789.1682,1191.4302,789.5082,1192.0714,789.65356,1192.46C789.82227,1192.8527,790.16455,1193.3496,790.4375,1193.5688C791.65234,1194.5645,794.6559,1197.6251,795.55664,1198.755C798.46326,1202.4738,801.6594,1207.4985,802.4916,1209.653C803.2905,1211.7289,806.61707,1217.0914,811.2002,1223.7461C814.05286,1227.8885,814.82117,1229.2113,815.8812,1231.962C816.0078,1232.3226,816.327,1233.4669,816.54724,1234.4958C817.6172,1239.1531,818.1234,1240.3309,819.0558,1240.5032C819.4292,1240.5718,819.8745,1240.5089,820.0488,1240.3484C820.6184,1239.8749,821.01074,1238.1389,821.0288,1235.9486C821.0292,1234.7675,821.23596,1232.7324,821.48083,1231.4033C821.72156,1230.0977,821.87756,1228.7283,821.7981,1228.3759C821.7416,1228.0278,821.7981,1226.5437,821.9249,1225.0721C822.0513,1223.6013,822.11597,1221.4193,822.06604,1220.2528C822.0436,1219.0674,822.07837,1217.6998,822.1731,1217.1868C822.2677,1216.6741,822.3047,1215.4271,822.23315,1214.3772C822.1803,1213.3546,822.1415,1211.0815,822.167,1209.3744C822.21326,1205.9841,822.1881,1204.9431,822.03577,1203.8059C821.96936,1203.3835,821.82825,1202.0558,821.68933,1200.8485C821.5779,1199.6233,821.3668,1198.2827,821.2344,1197.8239C821.1211,1197.3931,821.0021,1196.5997,820.97546,1196.0884C820.9193,1193.9088,820.6953,1191.0707,820.5585,1190.636C820.46155,1190.3768,820.4365,1189.3356,820.47314,1188.3538C820.5371,1187.353,820.4911,1186.1635,820.4054,1185.7139C820.2919,1185.2827,820.24536,1184.3584,820.26794,1183.7115C820.30383,1182.9949,819.9855,1181.3208,819.4894,1179.5663C818.9359,1177.7283,818.6323,1176.1052,818.656,1175.1936C818.6665,1174.3517,819.1245,1171.7361,819.7639,1168.7924C820.80225,1163.9453,820.85986,1163.7626,821.74316,1162.5035C822.8728,1160.9518,824.90466,1159.7354,827.1218,1159.348C828.66626,1159.0782,829.16455,1159.1224,830.2511,1159.6357L830.25464,1159.6367 Z M745.8091,1289.5828C744.81836,1289.8582,743.823,1290.1569,743.615,1290.2393C742.09753,1290.7549,740.5211,1291.0669,739.48865,1291.0454C737.381,1290.9702,736.162,1291.5651,734.8728,1293.3286C733.62415,1295.0027,732.5386,1296.707,732.4783,1297.0334C732.44824,1297.197,732.08813,1297.9739,731.6621,1298.7151C730.8612,1300.1831,729.8325,1301.0537,727.99854,1301.8485C725.5681,1302.8712,723.1985,1304.2183,722.96814,1304.682C722.38196,1305.9,723.1489,1307.1019,725.6847,1309.0398C727.2698,1310.2484,728.603,1312.3024,730.1443,1315.8407C730.376,1316.4137,731.6433,1318.4315,732.90894,1320.3282C734.17456,1322.2252,735.40405,1324.1877,735.6256,1324.6862C736.4729,1326.6265,736.88525,1328.0527,736.78625,1328.589C736.53723,1329.9414,736.71985,1330.6499,737.47534,1331.3918C737.9044,1331.8085,738.5437,1332.264,738.89966,1332.4258C739.46094,1332.65,740.0156,1333.0414,742.6975,1335.1029C743.03174,1335.3813,743.63074,1335.9254,744.01355,1336.3339C744.396,1336.7416,745.0056,1337.3607,745.37805,1337.6945C745.75037,1338.0282,746.6747,1338.8978,747.4536,1339.6439C749.16675,1341.3341,752.56726,1344.203,752.8706,1344.2589C753.0105,1344.2845,753.21326,1344.4908,753.34216,1344.7073C753.72437,1345.3802,756.3573,1345.7452,757.90393,1345.3314C759.02014,1345.031,761.65344,1343.5635,763.996,1341.9705C764.35925,1341.6997,765.4232,1341.0281,766.322,1340.4706C767.2201,1339.9133,768.97253,1338.6453,770.20935,1337.6913C771.4265,1336.7106,772.5759,1335.838,772.73706,1335.7472C773.96704,1334.961,778.4177,1330.6953,779.21814,1329.4928C779.8373,1328.6179,780.0209,1327.2299,779.6239,1326.5054C779.4469,1326.1598,778.8602,1324.8943,778.3353,1323.6884C777.8104,1322.4828,777.29126,1321.3751,777.2051,1321.1902C776.2971,1319.5764,775.5082,1317.8398,775.10803,1316.6086C774.8495,1315.7893,774.52454,1314.9341,774.40027,1314.6942C774.24817,1314.4733,774.15967,1314.1677,774.18115,1314.0511C774.28015,1313.5149,771.6532,1309.1976,770.17065,1307.4298C769.97205,1307.2001,769.36096,1306.4608,768.8303,1305.8082C767.845,1304.614,766.0591,1303.0555,765.5696,1302.9651C765.00977,1302.862,759.6632,1298.9113,758.1251,1297.4464C757.46924,1296.8193,756.86597,1296.2982,756.7728,1296.2809C756.703,1296.268,756.30725,1295.9299,755.9158,1295.5684C755.5056,1295.1794,754.359,1294.076,753.33484,1293.092C750.26306,1290.1388,749.2704,1289.3774,748.29565,1289.1731C747.9225,1289.1046,746.80444,1289.2839,745.8091,1289.5828L745.8126,1289.5834 Z" />
        </g>
        <g class="svg-white svg-opacity-100 miter">>
            <path d="M798.8993,1474.7526L898.63354,1436.3043L874.3971,1373.4374L872.83496,1369.386L773.09985,1407.8341L798.8993,1474.7526" />
        </g>
        <g class="svg-black svg-opacity-100 miter">
            <path d="M813.9535,1345.8604L695.042,1278.1617L686.76514,1292.4972L806.34753,1359.3898L813.43555,1353.3827 Z" />
        </g>
        <g class="svg-black svg-opacity-100 miter">
            <path d="M776.2622,1447.7164L833.6549,1424.9587L891.04785,1402.2014Q927.0679,1479.0792,963.08777,1555.9565Q893.96216,1556.0017,824.83716,1556.0466L776.2622,1447.7164" />
        </g>
        <g class="svg-black svg-opacity-100 miter">
            <path d="M688.188,1293.4615L688.188,1293.4617L672.23096,1275.4144Q684.04663,1277.2054,695.8623,1278.9965L688.188,1293.4615" />
        </g>
        <g class="svg-orange-200 svg-opacity-100 miter">
            <path d="M502.24802,1334.9225L502.0566,1334.9269Q501.7911,1334.7579,497.84528,1336.0731L491.32288,1336.8313Q490.19897,1337.0469,489.8579,1337.5195Q489.2569,1338.0778,488.37152,1339.8207Q484.747,1347.9877,482.66302,1351.4525Q479.71497,1356.5599,477.76074,1358.9491Q475.02594,1365.0524,474.58002,1369.6344Q474.3399,1371.4901,474.37555,1371.5944L474.55145,1377.1407L473.96698,1386.9902Q474.28668,1388.7527,475.56842,1389.5723Q477.11664,1390.575,482.638,1392.6469Q491.60114,1395.7101,502.63748,1396.8777Q505.78696,1396.44,507.28415,1394.6313Q509.82767,1390.4397,514.06995,1380.7373Q516.29114,1376.8289,517.35486,1375.7625Q517.75183,1375.135,517.9496,1374.6042Q518.2258,1373.877,518.052,1373.1633Q517.1028,1371.3997,517.1138,1370.6416Q516.92737,1369.2095,517.06445,1367.0149L518.81494,1357.6798Q519.2202,1351.4855,519.6063,1350.671Q519.6588,1350.296,520.1853,1348.9166L521.9524,1345.4432Q522.3397,1344.224,522.2761,1344.0807Q522.385,1342.9056,521.25244,1342.3341Q520.1588,1341.8817,514.0503,1341.5774Q512.5416,1341.2822,512.0386,1340.9661Q511.14584,1340.6543,508.20047,1337.8931Q506.6055,1336.7505,505.29605,1335.9607Q503.6719,1334.9172,502.24802,1334.9225 M425.59344,1212.9454L425.97437,1212.9534Q435.2852,1214.6069,436.71732,1229.2222Q432.06223,1254.3966,430.60352,1293.9484Q430.51807,1299.0979,432.73828,1306.427L433.68158,1321.0018L435.88593,1333.7941Q436.6258,1336.2089,439.12375,1339.8557Q444.1783,1345.5457,450.33673,1343.8138L465.5914,1318.3619Q468.0527,1314.3864,470.61075,1313.4064Q497.9613,1308.4526,511.381,1311.9045Q514.11743,1312.8503,515.3197,1314.2466Q519.7125,1318.5596,528.2261,1330.6576Q536.4138,1328.4607,537.645,1331.6013Q538.38684,1332.334,539.56335,1337.9211Q540.49536,1352.1254,543.20605,1360.5873Q545.5502,1368.0297,548.8386,1373.9226Q549.3817,1375.0493,549.4374,1377.2434Q549.41345,1379.0337,548.30115,1381.8667L528.48535,1425.4883Q517.79236,1440.676,506.96335,1462.4707L500.20883,1472.5588L489.95193,1492.9857L435.38663,1527.8726L426.19788,1535.2307L411.80228,1550.7681Q406.02982,1552.3306,406.37076,1553.6248L402.0118,1553.6259Q398.6897,1546.2496,397.27856,1536.7211L400.63446,1507.4199Q402.9749,1498.4973,403.17572,1499.3582Q412.31146,1488.4523,411.91266,1487.4279Q413.74664,1483.3177,415.4389,1468.0704Q413.97894,1435.5154,405.63083,1405.9169Q406.10654,1401.7172,395.12012,1392.6389L361.08395,1373.9882Q335.59595,1336.6725,330.1539,1317.0298Q333.1381,1307.1678,344.9238,1315.4938Q346.86096,1316.9388,347.77307,1318.6217Q348.8941,1324.0198,356.42648,1336.3936L367.22037,1348.133Q382.17587,1361.5192,388.75513,1360.5663Q389.5293,1359.3405,388.67468,1357.3998L374.95465,1326.5702Q373.1562,1317.4623,364.83105,1298.9752L362.60025,1283.3735L357.37592,1264.2545L354.84604,1250.0083Q354.49777,1246.0969,355.03903,1244.8596Q356.8033,1237.9496,364.3408,1239.3833Q367.5875,1238.7822,373.35492,1248.9576L375.1562,1252.287L376.58987,1260.4492L387.38657,1293.2614Q393.94745,1308.9695,397.70547,1315.0945Q399.16727,1317.7637,400.33658,1317.0083Q401.29398,1316.5222,401.21622,1315.1025Q399.79327,1305.1544,400.45026,1303.6163Q405.52975,1280.0172,405.27512,1274.9276Q406.7048,1265.4952,410.57986,1258.1677Q414.20377,1234.9088,417.60867,1220.3524Q418.6033,1213.2426,425.59344,1212.9454 Z" />
        </g>
        <g class="svg-white svg-opacity-100 miter">>
            <path d="M506.0654,1468.925Q506.06546,1481.8577,506.06534,1494.7903Q456.194,1494.7908,406.3228,1494.7908Q406.32294,1481.8585,406.32288,1468.9261L456.19406,1468.9257L506.0654,1468.925 Z" />
        </g>
        <g class="svg-black svg-opacity-100 miter">
            <path d="M509.0104,1485.2314L509.8586,1553.6252L395.33795,1553.6256L394.50693,1486.6527L509.0104,1485.2314 Z" />
        </g>
        <g class="svg-gray-900 svg-opacity-100 miter">
            <path d="M520.2772,1121.355C519.8131,1121.355,519.4292,1121.3591,519.1853,1121.3691C512.98975,1121.6388,507.4164,1122.726,501.7032,1124.7861C494.94617,1127.2252,488.75748,1130.8782,483.3107,1135.6396C482.28738,1136.5408,482.22684,1136.5906,481.15897,1137.6338C478.5704,1140.1603,476.5761,1142.473,474.4687,1145.3947C468.87274,1153.1754,465.331,1162.1848,464.10025,1171.8066C463.74722,1174.5178,463.54642,1178.7798,463.64722,1181.2081C463.94983,1188.2784,465.21948,1194.3934,467.6836,1200.6498C471.8601,1211.2372,479.32205,1220.5822,488.74097,1227.0134C496.85583,1232.5625,506.15878,1235.9194,515.9866,1236.8512C517.21497,1236.9669,520.7267,1237.1066,522.2733,1237.1066C522.4358,1237.1066,522.5769,1237.1053,522.69116,1237.1019C524.6095,1237.048,526.5105,1236.9348,527.7213,1236.7961C528.06165,1236.7566,528.6378,1236.6865,528.9977,1236.6472C533.6387,1236.106,539.29944,1234.5917,543.9066,1232.6605C546.60706,1231.5337,548.9381,1230.3475,551.53735,1228.7802C565.5653,1220.3423,575.39685,1206.1521,578.41077,1189.986C578.9944,1186.8524,579.1754,1185.0995,579.3147,1181.2848C579.45105,1177.542,579.4072,1176.0542,579.0675,1172.8608C577.5238,1158.3408,570.45935,1144.8971,559.3495,1135.3215C554.7803,1131.3873,549.6107,1128.1876,544.01953,1125.8328C538.79395,1123.6346,532.994,1122.1721,527.45337,1121.6438C526.7711,1121.5798,526.0565,1121.5149,525.8617,1121.4946C525.1227,1121.4209,522.08765,1121.355,520.2772,1121.355 Z M521.5017,1101.1232C523.6013,1101.1232,525.7252,1101.1821,527.2822,1101.3015C532.0465,1101.6707,537.45544,1102.5914,541.69556,1103.756C543.5088,1104.2523,545.80383,1104.9552,546.88477,1105.34C553.3131,1107.6211,558.2189,1110.0161,563.85596,1113.6173C565.9835,1114.9789,569.36035,1117.4683,571.47314,1119.2332C575.48987,1122.5864,579.7678,1126.9926,582.8506,1130.9375C587.91956,1137.4316,591.796,1144.2799,594.6022,1151.6954C597.76514,1160.0564,599.3827,1168.426,599.6295,1177.7559C599.6725,1179.4386,599.4773,1184.7963,599.3142,1186.4132C598.55493,1193.8292,597.14514,1199.9569,594.6902,1206.5156C591.4834,1215.1003,586.8229,1222.9742,580.7709,1230.0277C576.8429,1234.6107,571.8192,1239.2115,566.97437,1242.6655C562.37695,1245.9464,558.1763,1248.3547,553.09424,1250.6204C547.5553,1253.084,541.9575,1254.8422,536.01733,1255.969C532.19727,1256.6963,527.9957,1257.1626,524.25037,1257.2739L523.58484,1257.2957L523.38367,1262.8152L523.1821,1268.342L524.8616,1268.4033C526.1439,1268.4498,526.6312,1268.4935,526.9214,1268.5756C528.2435,1268.9628,529.3126,1270.0319,529.7013,1271.349C529.8583,1271.87,529.85767,1271.8895,529.8008,1273.9928C529.7711,1275.1583,528.8871,1300.3052,527.8484,1329.88C526.1853,1376.945,525.93884,1383.7089,525.83984,1384.1027C525.7023,1384.6581,525.2682,1385.4769,524.88855,1385.8801C524.52893,1386.2646,523.99414,1386.6362,523.4646,1386.8579C523.0242,1387.0474,522.88477,1387.1401,521.67993,1387.1401C520.5112,1387.1401,518.3406,1387.053,513.92126,1386.882L505.73953,1386.5643L505.3096,1386.3793C504.66788,1386.1014,504.21048,1385.7782,503.772,1385.2867C503.33328,1384.795,503.10013,1384.402,502.88242,1383.7618L502.73532,1383.3265L503.07144,1372.8441C503.26212,1367.0758,504.15097,1341.7981,505.054,1316.6648L506.69327,1270.9675L506.85867,1270.5435C507.32632,1269.3347,508.27103,1268.4563,509.5176,1268.0527C509.8268,1267.9519,509.95755,1267.9158,510.52054,1267.9158C510.8102,1267.9158,511.21414,1267.9255,511.81595,1267.9407L513.6332,1267.981L513.60876,1267.3933C513.6012,1267.0674,513.67236,1264.5801,513.7711,1261.8721L513.9507,1256.951L512.7947,1256.8304C511.4636,1256.6971,509.83603,1256.462,507.82162,1256.1078C506.44186,1255.8688,506.05392,1255.7894,504.13364,1255.361C498.74756,1254.1611,492.92944,1252.1238,487.72186,1249.6136C486.466,1249.014,483.36465,1247.3627,482.35037,1246.7653C481.16336,1246.0631,480.7811,1245.8279,480.05466,1245.3711C469.5287,1238.7301,460.68805,1229.6606,454.34348,1219.0006C451.84995,1214.8031,449.707,1210.2863,448.04257,1205.702C445.38336,1198.3705,443.83527,1190.59,443.48505,1182.8531C443.29562,1178.5767,443.45944,1174.0789,443.9636,1169.8992C445.7926,1154.5896,452.17297,1140.1302,462.28024,1128.3943C468.41275,1121.2719,475.79456,1115.2771,483.92294,1110.8019C490.60776,1107.1217,497.21002,1104.631,504.84048,1102.9014C506.5297,1102.5198,509.34366,1102.0359,511.39346,1101.7717C512.74927,1101.593,513.40344,1101.5256,515.516,1101.3287C516.9818,1101.1923,519.2274,1101.1232,521.5017,1101.1232 Z" />
        </g>
        <g class="svg-orange-200 svg-opacity-100 miter">
            <path d="M526.98206,1325.6749Q528.7759,1325.6749,530.8096,1326.4681Q537.58704,1330.0676,540.3124,1343.5145Q543.14185,1356.6727,544.33545,1385.9208L505.561,1398.7405L515.0747,1372.1401Q514.80945,1359.5895,515.39087,1348.5948Q516.16406,1339.9633,516.60706,1338.7672Q517.1953,1335.8271,518.09705,1333.4636Q521.36084,1325.675,526.98206,1325.6749 Z" />
        </g>
        <g class="svg-black svg-opacity-100 miter">
            <path d="M188.87903,1424.2589L77.12027,1424.2594L77.12012,1243.1061L188.87894,1243.1066L188.87903,1424.2589 Z M124.30307,1442.6531C124.30307,1437.6731,128.3027,1433.6323,133.23758,1433.6323C138.17409,1433.6323,142.1722,1437.6726,142.1722,1442.6531C142.1722,1447.6321,138.17427,1451.6792,133.23764,1451.6792C128.30295,1451.6726,124.30307,1447.6321,124.30307,1442.6531 M196.37747,1450.8406L196.39261,1450.8406L196.39265,1233.7424L196.39265,1233.7407L196.39265,1233.6969L196.38905,1233.6978C196.36552,1228.7405,192.3438,1224.7289,187.37846,1224.7289C187.34306,1224.7289,187.31438,1224.7324,187.28233,1224.7324L187.28233,1224.7289L167.0352,1224.7297L107.96595,1224.7289L78.62056,1224.7296C73.66194,1224.7313,69.64375,1228.7429,69.61671,1233.6968L69.61494,1233.6976L69.615074,1450.8384L69.62844,1450.8389C69.62527,1450.9331,69.615074,1451.0256,69.615074,1451.1233C69.615135,1455.981,73.697655,1459.9199,78.73543,1459.9199C78.80971,1459.9199,78.88222,1459.9104,78.95674,1459.9077L78.95674,1459.9199L187.50192,1459.9209L187.50192,1459.9199C192.40317,1459.9199,196.39114,1455.9827,196.39084,1451.1238C196.39261,1451.0278,196.38065,1450.9331,196.37747,1450.8406" />
        </g>
        <g class="svg-white svg-opacity-100 miter">>
            <path d="M188.87894,1243.1061L188.87903,1424.2589L77.12027,1424.2594L77.12012,1243.1061 Z" />
        </g>
        <g class="svg-stone-500 svg-opacity-100 miter">
            <path d="M133.23758,1433.6323C138.17409,1433.6323,142.1722,1437.6726,142.1722,1442.6531C142.1722,1447.6321,138.17427,1451.6792,133.23764,1451.6792C128.30295,1451.6726,124.30307,1447.6321,124.30307,1442.6531C124.30307,1437.6731,128.3027,1433.6323,133.23758,1433.6323 Z" />
        </g>
        <g class="svg-black svg-opacity-100 miter">
            <path d="M612.55945,1259.6818L612.55945,1259.6823L608.6227,1299.069Q650.04675,1267.5889,691.4708,1236.1088Q655.3834,1259.0498,619.2959,1281.9908L612.55945,1259.6818" />
        </g>
    </g>
</svg>
